<svg width="1240" height="837" viewBox="0 0 1240 837" fill="none" xmlns="http://www.w3.org/2000/svg">
<path d="M407.216 604.941C546.592 525.852 701.592 438.086 836.504 408.335C746.976 52.0646 783.928 15.8673 391.096 400.401C286.44 502.795 208.32 579.404 159.464 638.411C132.928 670.393 57.04 760.143 152.52 732.375C215.016 713.781 306.776 661.964 407.216 604.941ZM1038.38 816.918C974.888 789.398 908.672 708.078 868.992 542.463V542.215L859.32 501.803C740.528 527.092 588.752 612.875 453.096 689.732C347.944 749.234 251.72 803.778 178.56 825.1C95.728 849.148 18.848 837.992 2.72801 770.308C-10.912 721.466 25.792 649.072 86.8 575.19C138.136 513.208 218.24 434.863 325.128 329.99V329.742C771.528 -107.352 801.04 -136.112 931.488 397.426C954.552 397.922 976.624 401.145 997.456 407.343C1148.49 452.218 1216.94 537.257 1234.54 617.585C1248.43 681.054 1230.33 741.796 1195.11 781.217C1156.92 824.604 1099.14 843.198 1038.38 816.918ZM961.248 519.406C992.496 650.063 1035.9 710.557 1075.08 727.417C1094.42 735.846 1113.02 729.648 1125.42 715.764C1141.3 698.161 1148.98 669.65 1142.04 638.907C1131.13 588.826 1082.27 534.282 970.92 501.06C965.96 499.572 960.752 498.332 955.544 497.341L961.248 519.406Z" fill="#D72156"/>
</svg>
