<svg width="1772" height="729" viewBox="0 0 1772 729" fill="none" xmlns="http://www.w3.org/2000/svg">
<path d="M794.421 254.559C854.367 221.355 920.953 184.278 979.054 171.735C940.505 21.9504 956.552 6.63993 787.597 168.599C742.591 211.763 709.021 243.86 687.994 268.763C676.558 282.228 643.911 320.044 685.043 308.238C711.788 300.49 751.26 278.539 794.421 254.559ZM1065.93 343.839C1038.63 332.218 1010.23 298.092 993.073 228.365L988.83 211.394C937.738 222.093 872.443 258.248 814.157 290.529C768.967 315.616 727.466 338.49 696.11 347.529C660.511 357.674 627.495 352.878 620.486 324.471C614.584 303.995 630.446 273.374 656.638 242.384C678.772 216.191 713.079 183.356 759.191 139.269C951.387 -45.0099 963.93 -57 1020 167.492C1029.96 167.677 1039.37 168.968 1048.41 171.55C1113.33 190.366 1142.85 226.336 1150.41 260.093C1156.31 286.84 1148.56 312.296 1133.44 328.898C1116.84 346.975 1091.94 354.907 1065.93 343.839ZM1032.73 218.589C1046.19 273.559 1064.82 299.015 1081.61 306.209C1089.91 309.714 1098.02 307.131 1103.37 301.413C1110.2 294.034 1113.52 282.044 1110.57 268.947C1105.77 247.918 1084.93 224.86 1036.97 211.026C1034.76 210.472 1032.54 209.919 1030.33 209.55L1032.73 218.589Z" fill="#807B76"/>
<path opacity="0.25" d="M1041.4 327.238C1095.63 380.179 1165.72 327.792 1150.41 260.094C1144.14 232.424 1123.29 203.463 1080.32 183.541C1141 225.046 1142.11 269.132 1130.49 300.307C1117.94 333.879 1079.95 351.034 1041.4 327.238Z" fill="url(#paint0_linear)"/>
<path d="M1032.73 218.589C1046.19 273.559 1064.82 299.015 1081.61 306.21C1086.96 308.423 1092.12 308.239 1096.55 306.21C1004.51 353.617 1008.38 39.6597 939.029 16.0483C910.624 6.45624 874.472 33.2034 872.443 34.6792C960.056 -36.3393 977.763 -1.29122 1019.82 167.493L1030.15 209.366L1032.73 218.589Z" fill="url(#paint1_linear)"/>
<path d="M85.3998 724.942H0V456.916H85.3998C171.169 456.916 223.183 517.051 223.183 591.021C223.183 664.807 171.169 724.942 85.3998 724.942ZM85.3998 488.275H38.3654V693.583H85.3998C146.637 693.583 184.264 647.652 184.264 591.021C184.264 534.206 146.637 488.275 85.3998 488.275Z" fill="#D72156"/>
<path d="M348.793 533.838C373.878 533.838 398.41 542.507 416.486 567.779V537.896H452.822V724.942H416.486V695.059C398.594 720.515 373.878 729 348.793 729C292.72 729 256.199 684.913 256.199 631.419C256.199 578.109 292.72 533.838 348.793 533.838ZM353.404 566.119C314.485 566.119 292.536 596.002 292.536 631.603C292.536 667.02 314.67 697.088 353.404 697.088C391.216 697.088 416.854 669.418 417.223 631.603C416.854 593.788 391.032 566.119 353.404 566.119Z" fill="#D72156"/>
<path d="M555.56 668.496C555.56 688.971 565.705 697.272 578.063 697.272C589.683 697.272 600.934 690.632 600.934 676.797C600.934 674.214 600.565 667.02 597.983 661.486C608.866 661.486 618.826 661.486 629.708 661.486C633.028 669.049 633.028 681.593 633.028 681.593C633.028 708.156 614.03 729 577.694 729C548.182 729 519.408 713.689 519.408 665.913V566.488H488.789V538.08H519.408L527.708 484.217H555.744V538.08H615.137V566.488H555.744V668.496H555.56Z" fill="#D72156"/>
<path d="M745.727 533.838C770.812 533.838 795.343 542.507 813.419 567.779V537.896H849.756V724.942H813.419V695.059C795.528 720.515 770.812 729 745.727 729C689.654 729 653.133 684.913 653.133 631.419C653.133 578.109 689.654 533.838 745.727 533.838ZM750.153 566.119C711.235 566.119 689.285 596.002 689.285 631.603C689.285 667.02 711.419 697.088 750.153 697.088C787.965 697.088 813.604 669.418 813.973 631.603C813.788 593.788 787.965 566.119 750.153 566.119Z" fill="#D72156"/>
<path d="M1004.69 499.158C1003.22 486.43 992.335 482.741 981.452 482.741C969.094 482.741 956.367 491.042 956.367 519.08V538.08H1058V523.877C1058 463.741 1090.46 451.013 1119.97 451.013C1156.31 451.013 1175.68 471.489 1175.68 498.052C1175.68 498.052 1175.68 502.848 1173.83 508.197H1142.84C1143.21 505.615 1143.58 504.508 1143.58 501.925C1143.58 486.984 1131.96 482.926 1120.34 482.926C1107.98 482.926 1095.26 491.226 1095.26 519.265V538.265H1144.14V566.672H1095.26V724.942H1057.81V566.488H956.183V724.942H918.74V566.488H889.228V538.08H918.74V523.877C918.74 463.741 951.203 451.013 980.714 451.013C1012.81 451.013 1031.62 467.062 1035.68 489.566L1004.69 499.158Z" fill="#D72156"/>
<path d="M1256.28 533.838C1281.37 533.838 1305.9 542.507 1323.97 567.779V537.896H1360.31V724.942H1323.97V695.059C1306.08 720.515 1281.37 729 1256.28 729C1200.21 729 1163.69 684.913 1163.69 631.419C1163.5 578.109 1200.21 533.838 1256.28 533.838ZM1260.71 566.119C1221.79 566.119 1199.84 596.002 1199.84 631.603C1199.84 667.02 1221.97 697.088 1260.71 697.088C1298.52 697.088 1324.16 669.418 1324.53 631.603C1324.16 593.788 1298.52 566.119 1260.71 566.119Z" fill="#D72156"/>
<path d="M1436.67 452.489C1450.87 452.489 1462.13 463.741 1462.13 477.945C1462.13 492.149 1450.87 503.032 1436.67 503.032C1422.47 503.032 1411.59 492.149 1411.59 477.945C1411.59 463.741 1422.47 452.489 1436.67 452.489ZM1454.93 538.08H1418.6V724.942H1454.93V538.08Z" fill="#D72156"/>
<path d="M1549.92 580.322C1556.19 550.808 1576.85 534.022 1599.91 534.022C1606.55 534.022 1611.9 535.867 1617.06 538.08V573.497C1611.16 570.177 1603.97 568.701 1597.33 568.701C1584.97 568.701 1549.92 574.604 1549.92 654.292V724.942H1513.59V538.08H1549.92V580.322Z" fill="#D72156"/>
<path d="M1734.56 585.487C1728.65 568.701 1717.03 565.012 1705.41 565.012C1688.63 565.012 1677.75 575.526 1677.75 588.992C1677.75 601.351 1689 607.623 1700.25 611.497L1727.18 620.535C1762.59 631.419 1772 653.37 1772 673.292C1772 708.709 1741.01 729.369 1704.68 729.369C1671.84 729.369 1641.23 712.583 1632.56 680.486L1664.65 672.554C1669.08 687.496 1685.86 698.379 1705.05 698.379C1723.67 698.379 1737.14 687.496 1737.14 672.923C1737.14 660.195 1726.63 653.923 1713.53 649.312L1688.44 640.642C1658.56 631.603 1642.52 615.555 1642.52 589.73C1642.52 558.002 1667.23 534.022 1704.12 534.022C1730.31 534.022 1756.14 544.905 1766.47 578.478L1734.56 585.487Z" fill="#D72156"/>
<defs>
<linearGradient id="paint0_linear" x1="1073.59" y1="328.558" x2="1131.02" y2="209.913" gradientUnits="userSpaceOnUse">
<stop stop-color="#807B76"/>
<stop offset="0.0443293" stop-color="#716D68"/>
<stop offset="0.1283" stop-color="#5B5854"/>
<stop offset="0.2274" stop-color="#4A4844"/>
<stop offset="0.3501" stop-color="#3F3C39"/>
<stop offset="0.5222" stop-color="#383633"/>
<stop offset="1" stop-color="#363431"/>
</linearGradient>
<linearGradient id="paint1_linear" x1="919.27" y1="21.9373" x2="1061.16" y2="294.112" gradientUnits="userSpaceOnUse">
<stop stop-color="#807B76"/>
<stop offset="1" stop-color="#5C5955"/>
</linearGradient>
</defs>
</svg>
