<svg width="114" height="48" viewBox="0 0 114 48" fill="none" xmlns="http://www.w3.org/2000/svg">
<path d="M51.1083 16.7621C54.9648 14.5759 59.2486 12.1346 62.9865 11.3087C60.5064 1.44631 61.5388 0.438209 50.6692 11.1022C47.7738 13.9443 45.6141 16.0576 44.2614 17.6973C43.5257 18.584 41.4253 21.0738 44.0715 20.2965C45.7921 19.7864 48.3315 18.341 51.1083 16.7621ZM68.5755 22.6406C66.8193 21.8755 64.9919 19.6285 63.8883 15.0374L63.6154 13.92C60.3284 14.6244 56.1277 17.005 52.3779 19.1305C49.4707 20.7823 46.8008 22.2884 44.7835 22.8836C42.4933 23.5516 40.3692 23.2358 39.9183 21.3653C39.5386 20.0172 40.5591 18.001 42.2441 15.9605C43.668 14.2358 45.8752 12.0738 48.8418 9.171C61.2065 -2.9626 62.0134 -3.75207 65.6208 11.0293C66.2616 11.0414 66.8668 11.1265 67.4482 11.2965C71.6252 12.5354 73.5238 14.9038 74.0103 17.1265C74.39 18.8876 73.8916 20.5637 72.9186 21.6568C71.8506 22.8471 70.2487 23.3694 68.5755 22.6406ZM66.4396 14.3937C67.3058 18.0131 68.5043 19.6892 69.5842 20.1629C70.1181 20.3937 70.6403 20.2236 70.9844 19.8471C71.4234 19.3613 71.637 18.5718 71.4472 17.7095C71.1386 16.3248 69.7977 14.8066 66.7125 13.8957C66.5701 13.8593 66.4277 13.8228 66.2853 13.7985L66.4396 14.3937Z" fill="white"/>
<path opacity="0.25" d="M66.9973 21.5466C70.486 25.0324 74.9952 21.583 74.0103 17.1255C73.6069 15.3036 72.266 13.3968 69.5011 12.085C73.4052 14.8178 73.4763 17.7207 72.7288 19.7733C71.9219 21.9838 69.4774 23.1134 66.9973 21.5466Z" fill="white"/>
<path d="M66.4395 14.3927C67.3058 18.0121 68.5043 19.6883 69.5841 20.1619C69.9282 20.3077 70.2605 20.2956 70.5453 20.1619C64.624 23.2834 64.8732 2.61134 60.4114 1.05668C58.584 0.425105 56.2582 2.18624 56.1277 2.2834C61.7642 -2.39271 62.9034 -0.0850159 65.6089 11.0283L66.2734 13.7854L66.4395 14.3927Z" fill="white"/>
<path d="M5.49412 47.7328H0V30.085H5.49412C11.012 30.085 14.3583 34.0445 14.3583 38.915C14.3583 43.7733 11.012 47.7328 5.49412 47.7328ZM5.49412 32.1498H2.4682V45.668H5.49412C9.43375 45.668 11.8545 42.6437 11.8545 38.915C11.8545 35.1741 9.43375 32.1498 5.49412 32.1498Z" fill="white"/>
<path d="M22.4393 35.1498C24.0531 35.1498 25.6314 35.7207 26.7943 37.3846V35.417H29.1319V47.7328H26.7943V45.7652C25.6432 47.4413 24.0531 48 22.4393 48C18.832 48 16.4824 45.0972 16.4824 41.5749C16.4824 38.0648 18.832 35.1498 22.4393 35.1498ZM22.736 37.2753C20.2322 37.2753 18.8201 39.2429 18.8201 41.5871C18.8201 43.919 20.244 45.8988 22.736 45.8988C25.1686 45.8988 26.818 44.0769 26.8417 41.5871C26.818 39.0972 25.1567 37.2753 22.736 37.2753Z" fill="white"/>
<path d="M35.7414 44.0162C35.7414 45.3644 36.3941 45.9109 37.1891 45.9109C37.9367 45.9109 38.6605 45.4737 38.6605 44.5627C38.6605 44.3927 38.6368 43.919 38.4707 43.5546C39.1708 43.5546 39.8116 43.5546 40.5117 43.5546C40.7253 44.0526 40.7253 44.8785 40.7253 44.8785C40.7253 46.6275 39.5031 48 37.1654 48C35.2668 48 33.4156 46.9919 33.4156 43.8461V37.2996H31.4458V35.4292H33.4156L33.9496 31.8826H35.7533V35.4292H39.5743V37.2996H35.7533V44.0162H35.7414Z" fill="white"/>
<path d="M47.9757 35.1498C49.5895 35.1498 51.1677 35.7207 52.3306 37.3846V35.417H54.6683V47.7328H52.3306V45.7652C51.1796 47.4413 49.5895 48 47.9757 48C44.3683 48 42.0188 45.0972 42.0188 41.5749C42.0188 38.0648 44.3683 35.1498 47.9757 35.1498ZM48.2605 37.2753C45.7567 37.2753 44.3446 39.2429 44.3446 41.5871C44.3446 43.919 45.7686 45.8988 48.2605 45.8988C50.6931 45.8988 52.3425 44.0769 52.3662 41.5871C52.3544 39.0972 50.6931 37.2753 48.2605 37.2753Z" fill="white"/>
<path d="M64.6361 32.8664C64.5412 32.0283 63.841 31.7854 63.1409 31.7854C62.3459 31.7854 61.5271 32.332 61.5271 34.1781V35.4291H68.0655V34.4939C68.0655 30.5344 70.1539 29.6964 72.0526 29.6964C74.3902 29.6964 75.6362 31.0445 75.6362 32.7935C75.6362 32.7935 75.6362 33.1093 75.5175 33.4615H73.524C73.5477 33.2915 73.5715 33.2186 73.5715 33.0486C73.5715 32.0648 72.8239 31.7976 72.0763 31.7976C71.2813 31.7976 70.4625 32.3441 70.4625 34.1903V35.4413H73.6071V37.3117H70.4625V47.7328H68.0536V37.2996H61.5153V47.7328H59.1064V37.2996H57.2078V35.4291H59.1064V34.4939C59.1064 30.5344 61.1949 29.6964 63.0935 29.6964C65.1582 29.6964 66.3686 30.753 66.6296 32.2348L64.6361 32.8664Z" fill="white"/>
<path d="M80.8217 35.1498C82.4355 35.1498 84.0137 35.7207 85.1766 37.3846V35.417H87.5143V47.7328H85.1766V45.7652C84.0256 47.4413 82.4355 48 80.8217 48C77.2143 48 74.8648 45.0972 74.8648 41.5749C74.8529 38.0648 77.2143 35.1498 80.8217 35.1498ZM81.1065 37.2753C78.6027 37.2753 77.1906 39.2429 77.1906 41.5871C77.1906 43.919 78.6146 45.8988 81.1065 45.8988C83.5391 45.8988 85.1885 44.0769 85.2122 41.5871C85.1885 39.0972 83.5391 37.2753 81.1065 37.2753Z" fill="white"/>
<path d="M92.4271 29.7935C93.3408 29.7935 94.0646 30.5344 94.0646 31.4696C94.0646 32.4049 93.3408 33.1215 92.4271 33.1215C91.5133 33.1215 90.8132 32.4049 90.8132 31.4696C90.8132 30.5344 91.5133 29.7935 92.4271 29.7935ZM93.6018 35.4291H91.2642V47.7328H93.6018V35.4291Z" fill="white"/>
<path d="M99.7129 38.2105C100.116 36.2672 101.445 35.1619 102.929 35.1619C103.356 35.1619 103.7 35.2834 104.032 35.4291V37.7611C103.653 37.5425 103.19 37.4453 102.763 37.4453C101.968 37.4453 99.7129 37.834 99.7129 43.081V47.7328H97.3752V35.4291H99.7129V38.2105Z" fill="white"/>
<path d="M111.591 38.5506C111.211 37.4453 110.464 37.2024 109.716 37.2024C108.636 37.2024 107.936 37.8947 107.936 38.7814C107.936 39.5951 108.66 40.0081 109.384 40.2631L111.116 40.8583C113.395 41.5749 114 43.0202 114 44.332C114 46.6639 112.006 48.0243 109.669 48.0243C107.557 48.0243 105.587 46.919 105.029 44.8056L107.094 44.2834C107.379 45.2672 108.458 45.9838 109.693 45.9838C110.891 45.9838 111.757 45.2672 111.757 44.3077C111.757 43.4696 111.081 43.0567 110.238 42.753L108.625 42.1822C106.702 41.587 105.67 40.5303 105.67 38.8299C105.67 36.7409 107.26 35.1619 109.633 35.1619C111.318 35.1619 112.98 35.8785 113.644 38.0891L111.591 38.5506Z" fill="white"/>
</svg>
