<svg width="32" height="32" viewBox="0 0 32 32" fill="none" xmlns="http://www.w3.org/2000/svg">
<path d="M27.2303 27.2307H22.4949V19.8148C22.4949 18.0464 22.4633 15.7699 20.032 15.7699C17.5656 15.7699 17.1882 17.6966 17.1882 19.686V27.2302H12.4527V11.98H16.9988V14.0641H17.0624C17.5174 13.2863 18.1748 12.6463 18.9647 12.2125C19.7545 11.7787 20.6473 11.5673 21.5478 11.6007C26.3474 11.6007 27.2323 14.7577 27.2323 18.8647L27.2303 27.2307ZM7.10959 9.89546C6.56608 9.89555 6.03473 9.73448 5.58277 9.4326C5.1308 9.13073 4.77852 8.7016 4.57044 8.1995C4.36236 7.6974 4.30783 7.14487 4.41376 6.61178C4.5197 6.07869 4.78135 5.58899 5.1656 5.2046C5.54985 4.82021 6.03946 4.5584 6.57251 4.45227C7.10556 4.34614 7.6581 4.40046 8.16027 4.60836C8.66245 4.81627 9.0917 5.16841 9.39373 5.62027C9.69578 6.07213 9.85705 6.60341 9.85715 7.14692C9.85721 7.5078 9.78618 7.86516 9.64814 8.19859C9.5101 8.53202 9.30775 8.835 9.05262 9.09022C8.79749 9.34545 8.49456 9.54792 8.16118 9.68608C7.82779 9.82425 7.47047 9.89539 7.10959 9.89546ZM9.47731 27.2307H4.73693V11.98H9.47731V27.2307ZM29.5912 0.00181119H2.35738C1.73925 -0.0051644 1.14361 0.23355 0.701394 0.665498C0.259179 1.09745 0.00656737 1.68729 -0.000976562 2.30541V29.6522C0.00630918 30.2706 0.258773 30.8608 0.700973 31.2932C1.14317 31.7256 1.73894 31.9648 2.35738 31.9582H29.5912C30.2108 31.966 30.8083 31.7275 31.2522 31.2951C31.6961 30.8627 31.9503 30.2718 31.9589 29.6522V2.30344C31.95 1.68409 31.6957 1.09358 31.2517 0.661639C30.8078 0.229701 30.2105 -0.00833118 29.5912 -0.000162711" fill="#0A66C2"/>
</svg>
