<svg width="785" height="774" viewBox="0 0 785 774" fill="none" xmlns="http://www.w3.org/2000/svg">
<path d="M393.929 718.282C393.929 720.614 393.426 722.409 392.419 723.668C391.412 724.926 389.986 725.564 388.156 725.564C386.31 725.564 384.884 724.926 383.877 723.668C382.87 722.409 382.366 720.614 382.366 718.282C382.366 715.95 382.87 714.154 383.877 712.896C384.884 711.638 386.31 711 388.156 711C390.002 711 391.429 711.638 392.419 712.896C393.426 714.154 393.929 715.95 393.929 718.282ZM390.304 718.248C390.304 716.487 390.137 715.262 389.818 714.54C389.482 713.819 388.928 713.466 388.156 713.466C387.384 713.466 386.83 713.819 386.495 714.54C386.159 715.262 385.991 716.487 385.991 718.248C385.991 720.027 386.159 721.268 386.495 722.007C386.83 722.728 387.384 723.097 388.156 723.097C388.928 723.097 389.482 722.728 389.818 722.007C390.137 721.285 390.304 720.027 390.304 718.248Z" fill="#736F6C"/>
<path d="M396.883 711.252H405.879V713.92H399.77V716.084C400.038 716.017 400.324 715.95 400.609 715.916C400.894 715.883 401.179 715.849 401.482 715.849C403.193 715.849 404.519 716.269 405.476 717.124C406.432 717.98 406.902 719.171 406.902 720.698C406.902 722.208 406.382 723.399 405.342 724.255C404.301 725.111 402.858 725.547 401.012 725.547C400.223 725.547 399.434 725.463 398.645 725.312C397.856 725.161 397.084 724.926 396.312 724.607V721.755C397.084 722.191 397.806 722.527 398.494 722.745C399.182 722.963 399.82 723.081 400.441 723.081C401.314 723.081 402.002 722.863 402.522 722.443C403.025 722.007 403.277 721.436 403.277 720.698C403.277 719.96 403.025 719.373 402.522 718.953C402.019 718.534 401.33 718.316 400.441 718.316C399.921 718.316 399.367 718.383 398.78 718.517C398.192 718.651 397.554 718.853 396.883 719.138V711.252Z" fill="#736F6C"/>
<path d="M368.984 763.563H371.144L366.662 751.035H364.286L359.804 763.563H361.946L362.846 761.007H368.084L368.984 763.563ZM367.508 759.333H363.422L365.474 753.519L367.508 759.333ZM375.145 755.103V753.645H373.093V768.279H375.145V762.123C375.793 762.897 376.963 763.725 378.601 763.725C381.211 763.725 383.263 761.619 383.263 758.559C383.263 755.499 381.211 753.483 378.601 753.483C376.981 753.483 375.775 754.275 375.145 755.103ZM381.175 758.559C381.175 760.701 379.699 761.943 378.151 761.943C376.621 761.943 375.145 760.737 375.145 758.595C375.145 756.471 376.621 755.265 378.151 755.265C379.699 755.265 381.175 756.417 381.175 758.559ZM387.344 758.343C387.344 756.237 388.28 755.607 389.792 755.607H390.314V753.483C388.91 753.483 387.92 754.095 387.344 755.085V753.645H385.292V763.563H387.344V758.343ZM401.651 758.595C401.651 755.481 399.419 753.483 396.593 753.483C393.767 753.483 391.535 755.481 391.535 758.595C391.535 761.709 393.677 763.725 396.503 763.725C399.347 763.725 401.651 761.709 401.651 758.595ZM393.623 758.595C393.623 756.345 395.009 755.265 396.557 755.265C398.087 755.265 399.545 756.345 399.545 758.595C399.545 760.845 398.033 761.943 396.503 761.943C394.955 761.943 393.623 760.845 393.623 758.595ZM402.509 753.645L406.271 763.563H408.719L412.499 753.645H410.321L407.513 761.727L404.705 753.645H402.509ZM413.366 758.559C413.366 761.619 415.436 763.725 418.01 763.725C419.666 763.725 420.854 762.933 421.484 762.087V763.563H423.554V753.645H421.484V755.085C420.872 754.275 419.72 753.483 418.046 753.483C415.436 753.483 413.366 755.499 413.366 758.559ZM421.484 758.595C421.484 760.737 420.026 761.943 418.478 761.943C416.948 761.943 415.472 760.701 415.472 758.559C415.472 756.417 416.948 755.265 418.478 755.265C420.026 755.265 421.484 756.471 421.484 758.595ZM428.301 758.343C428.301 756.237 429.237 755.607 430.749 755.607H431.271V753.483C429.867 753.483 428.877 754.095 428.301 755.085V753.645H426.249V763.563H428.301V758.343Z" fill="#807B76"/>
<path d="M115.563 621.282C115.563 623.614 115.059 625.409 114.053 626.668C113.046 627.926 111.619 628.564 109.79 628.564C107.944 628.564 106.517 627.926 105.51 626.668C104.504 625.409 104 623.614 104 621.282C104 618.95 104.504 617.154 105.51 615.896C106.517 614.638 107.944 614 109.79 614C111.636 614 113.062 614.638 114.053 615.896C115.059 617.154 115.563 618.95 115.563 621.282ZM111.938 621.248C111.938 619.487 111.77 618.262 111.451 617.54C111.116 616.819 110.562 616.466 109.79 616.466C109.018 616.466 108.464 616.819 108.128 617.54C107.793 618.262 107.625 619.487 107.625 621.248C107.625 623.027 107.793 624.268 108.128 625.007C108.464 625.728 109.018 626.097 109.79 626.097C110.562 626.097 111.116 625.728 111.451 625.007C111.77 624.285 111.938 623.027 111.938 621.248Z" fill="#736F6C"/>
<path d="M127.932 614.621V617.222C127.344 616.936 126.774 616.735 126.253 616.601C125.733 616.467 125.213 616.399 124.709 616.399C123.635 616.399 122.796 616.701 122.192 617.305C121.588 617.909 121.235 618.799 121.135 619.973C121.554 619.671 121.991 619.436 122.477 619.285C122.964 619.134 123.484 619.05 124.055 619.05C125.498 619.05 126.656 619.47 127.529 620.309C128.418 621.148 128.855 622.255 128.855 623.614C128.855 625.124 128.368 626.315 127.378 627.221C126.388 628.127 125.079 628.58 123.417 628.58C121.588 628.58 120.178 627.96 119.188 626.735C118.181 625.51 117.694 623.748 117.694 621.5C117.694 619.185 118.282 617.356 119.456 616.03C120.631 614.705 122.226 614.034 124.273 614.034C124.911 614.034 125.549 614.084 126.153 614.185C126.757 614.285 127.328 614.42 127.932 614.621ZM123.451 621.366C122.813 621.366 122.343 621.567 122.024 621.987C121.705 622.389 121.554 623.01 121.554 623.832C121.554 624.654 121.705 625.275 122.024 625.678C122.343 626.081 122.813 626.299 123.451 626.299C124.089 626.299 124.575 626.097 124.877 625.678C125.196 625.275 125.347 624.654 125.347 623.832C125.347 623.01 125.196 622.389 124.877 621.987C124.558 621.567 124.089 621.366 123.451 621.366Z" fill="#736F6C"/>
<path d="M90.6002 659.831V655.745H92.8682C94.4702 655.745 95.1902 656.501 95.1902 657.797C95.1902 659.057 94.4702 659.831 92.8682 659.831H90.6002ZM97.2962 657.797C97.2962 655.763 95.8382 654.071 92.8682 654.071H88.5482V666.581H90.6002V661.505H92.8682C96.1262 661.505 97.2962 659.579 97.2962 657.797ZM108.703 661.613C108.703 658.499 106.471 656.501 103.645 656.501C100.819 656.501 98.5873 658.499 98.5873 661.613C98.5873 664.727 100.729 666.743 103.555 666.743C106.399 666.743 108.703 664.727 108.703 661.613ZM100.675 661.613C100.675 659.363 102.061 658.283 103.609 658.283C105.139 658.283 106.597 659.363 106.597 661.613C106.597 663.863 105.085 664.961 103.555 664.961C102.007 664.961 100.675 663.863 100.675 661.613ZM118.13 663.809C118.022 660.227 112.424 661.343 112.424 659.345C112.424 658.679 113 658.229 114.098 658.229C115.214 658.229 115.88 658.823 115.952 659.687H118.004C117.896 657.707 116.42 656.501 114.17 656.501C111.83 656.501 110.354 657.779 110.354 659.363C110.354 662.999 116.114 661.883 116.114 663.827C116.114 664.511 115.484 665.015 114.296 665.015C113.162 665.015 112.388 664.349 112.316 663.539H110.192C110.282 665.339 111.956 666.743 114.332 666.743C116.672 666.743 118.13 665.483 118.13 663.809ZM120.671 663.827C120.671 665.843 121.769 666.581 123.533 666.581H125.153V664.871H123.893C123.029 664.871 122.741 664.565 122.741 663.827V658.337H125.153V656.663H122.741V654.197H120.671V656.663H119.501V658.337H120.671V663.827ZM126.36 661.577C126.36 664.637 128.43 666.743 131.004 666.743C132.66 666.743 133.848 665.951 134.478 665.105V666.581H136.548V656.663H134.478V658.103C133.866 657.293 132.714 656.501 131.04 656.501C128.43 656.501 126.36 658.517 126.36 661.577ZM134.478 661.613C134.478 663.755 133.02 664.961 131.472 664.961C129.942 664.961 128.466 663.719 128.466 661.577C128.466 659.435 129.942 658.283 131.472 658.283C133.02 658.283 134.478 659.489 134.478 661.613ZM141.296 661.361C141.296 659.255 142.232 658.625 143.744 658.625H144.266V656.501C142.862 656.501 141.872 657.113 141.296 658.103V656.663H139.244V666.581H141.296V661.361Z" fill="#807B76"/>
<path d="M661.651 614.282C661.651 616.614 661.148 618.409 660.141 619.668C659.134 620.926 657.707 621.564 655.878 621.564C654.032 621.564 652.605 620.926 651.598 619.668C650.591 618.409 650.088 616.614 650.088 614.282C650.088 611.95 650.591 610.154 651.598 608.896C652.605 607.638 654.032 607 655.878 607C657.724 607 659.15 607.638 660.141 608.896C661.148 610.154 661.651 611.95 661.651 614.282ZM658.043 614.248C658.043 612.487 657.875 611.262 657.556 610.54C657.221 609.819 656.667 609.466 655.895 609.466C655.123 609.466 654.569 609.819 654.233 610.54C653.898 611.262 653.73 612.487 653.73 614.248C653.73 616.027 653.898 617.268 654.233 618.007C654.569 618.728 655.123 619.097 655.895 619.097C656.667 619.097 657.221 618.728 657.556 618.007C657.875 617.285 658.043 616.027 658.043 614.248Z" fill="#736F6C"/>
<path d="M669.069 607.252H673.097V616.111H675.094V618.728H673.097V621.279H669.674V618.728H663.447V615.624L669.069 607.252ZM669.674 610.238L665.713 616.111H669.674V610.238Z" fill="#736F6C"/>
<path d="M642.824 653.281C642.824 657.043 645.686 659.671 649.214 659.671C651.824 659.671 654.074 658.375 655.028 655.927H652.562C651.896 657.259 650.708 657.889 649.214 657.889C646.73 657.889 644.93 656.107 644.93 653.281C644.93 650.455 646.73 648.691 649.214 648.691C650.708 648.691 651.896 649.321 652.562 650.653H655.028C654.074 648.205 651.824 646.891 649.214 646.891C645.686 646.891 642.824 649.537 642.824 653.281ZM659.482 654.343C659.482 652.237 660.418 651.607 661.93 651.607H662.452V649.483C661.048 649.483 660.058 650.095 659.482 651.085V649.645H657.43V659.563H659.482V654.343ZM664.338 659.563H666.39V649.645H664.338V659.563ZM665.382 648.331C666.102 648.331 666.678 647.755 666.678 647.017C666.678 646.279 666.102 645.703 665.382 645.703C664.644 645.703 664.068 646.279 664.068 647.017C664.068 647.755 664.644 648.331 665.382 648.331ZM668.4 654.559C668.4 657.619 670.47 659.725 673.044 659.725C674.7 659.725 675.888 658.933 676.518 658.087V659.563H678.588V649.645H676.518V651.085C675.906 650.275 674.754 649.483 673.08 649.483C670.47 649.483 668.4 651.499 668.4 654.559ZM676.518 654.595C676.518 656.737 675.06 657.943 673.512 657.943C671.982 657.943 670.506 656.701 670.506 654.559C670.506 652.417 671.982 651.265 673.512 651.265C675.06 651.265 676.518 652.471 676.518 654.595ZM683.336 654.343C683.336 652.237 684.272 651.607 685.784 651.607H686.306V649.483C684.902 649.483 683.912 650.095 683.336 651.085V649.645H681.284V659.563H683.336V654.343Z" fill="#807B76"/>
<path d="M342.396 554.396L328.297 547.628L333.054 537.724C333.784 536.205 332.282 534.563 330.7 535.172L279.027 555.026L295.836 607.753C296.35 609.368 298.571 609.513 299.301 607.994L304.058 598.09L318.157 604.858C315.537 636.347 332.212 667.621 362.405 682.128C401.491 700.89 448.377 684.425 467.15 645.343C485.922 606.261 469.461 559.386 430.374 540.624C400.182 526.117 365.34 532.663 342.396 554.396Z" stroke="#807B76" stroke-width="3" stroke-miterlimit="10"/>
<g filter="url(#filter0_d_328:184)">
<path d="M374.078 547.821C338.984 560.146 320.523 598.58 332.844 633.665C345.166 668.75 383.604 687.202 418.698 674.877C453.793 662.552 472.254 624.119 459.932 589.033C447.611 553.948 409.172 535.497 374.078 547.821Z" fill="white"/>
</g>
<g clip-path="url(#clip0_328:184)">
<path d="M398 579C380.356 579 366 593.354 366 611C366 628.646 380.356 643 398 643C415.644 643 430 628.646 430 611C430 593.354 415.644 579 398 579ZM415.84 600.328L396.148 622.482C395.663 623.027 394.987 623.308 394.306 623.308C393.766 623.308 393.223 623.13 392.769 622.769L380.462 612.922C379.401 612.074 379.228 610.525 380.078 609.463C380.926 608.401 382.476 608.228 383.537 609.078L394.02 617.463L412.16 597.055C413.061 596.039 414.619 595.948 415.634 596.851C416.651 597.756 416.743 599.311 415.84 600.328Z" fill="#D72156"/>
</g>
<path d="M662.563 362.282C662.563 364.614 662.06 366.409 661.053 367.668C660.046 368.926 658.619 369.564 656.79 369.564C654.944 369.564 653.517 368.926 652.51 367.668C651.503 366.409 651 364.614 651 362.282C651 359.95 651.503 358.154 652.51 356.896C653.517 355.638 654.944 355 656.79 355C658.636 355 660.063 355.638 661.053 356.896C662.06 358.154 662.563 359.95 662.563 362.282ZM658.938 362.248C658.938 360.487 658.77 359.262 658.451 358.54C658.116 357.819 657.562 357.466 656.79 357.466C656.018 357.466 655.464 357.819 655.129 358.54C654.793 359.262 654.625 360.487 654.625 362.248C654.625 364.027 654.793 365.268 655.129 366.007C655.464 366.728 656.018 367.097 656.79 367.097C657.562 367.097 658.116 366.728 658.451 366.007C658.77 365.285 658.938 364.027 658.938 362.248Z" fill="#736F6C"/>
<path d="M672.448 361.711C673.388 361.963 674.109 362.382 674.613 362.987C675.1 363.591 675.351 364.362 675.351 365.302C675.351 366.695 674.814 367.752 673.757 368.473C672.683 369.194 671.139 369.564 669.091 369.564C668.37 369.564 667.648 369.513 666.926 369.396C666.205 369.278 665.483 369.111 664.778 368.876V366.09C665.45 366.426 666.121 366.678 666.792 366.862C667.464 367.03 668.118 367.114 668.756 367.114C669.712 367.114 670.451 366.946 670.954 366.611C671.458 366.275 671.726 365.805 671.726 365.184C671.726 364.547 671.458 364.06 670.937 363.725C670.417 363.389 669.645 363.238 668.622 363.238H667.178V360.906H668.705C669.612 360.906 670.3 360.755 670.736 360.47C671.189 360.185 671.407 359.748 671.407 359.161C671.407 358.624 671.189 358.205 670.753 357.903C670.317 357.601 669.712 357.466 668.924 357.466C668.336 357.466 667.749 357.534 667.161 357.668C666.574 357.802 665.97 357.987 665.382 358.255V355.604C666.104 355.403 666.809 355.252 667.514 355.151C668.219 355.05 668.907 355 669.578 355C671.407 355 672.767 355.302 673.673 355.906C674.579 356.51 675.032 357.399 675.032 358.607C675.032 359.429 674.814 360.101 674.378 360.621C673.942 361.141 673.304 361.51 672.448 361.711Z" fill="#736F6C"/>
<path d="M636.498 405.457L632.79 395.053H630.594L635.31 407.563H637.686L642.384 395.053H640.224L636.498 405.457ZM643.416 402.559C643.416 405.619 645.486 407.725 648.06 407.725C649.716 407.725 650.904 406.933 651.534 406.087V407.563H653.604V397.645H651.534V399.085C650.922 398.275 649.77 397.483 648.096 397.483C645.486 397.483 643.416 399.499 643.416 402.559ZM651.534 402.595C651.534 404.737 650.076 405.943 648.528 405.943C646.998 405.943 645.522 404.701 645.522 402.559C645.522 400.417 646.998 399.265 648.528 399.265C650.076 399.265 651.534 400.471 651.534 402.595ZM656.299 407.563H658.351V394.243H656.299V407.563ZM661.045 407.563H663.097V397.645H661.045V407.563ZM662.089 396.331C662.809 396.331 663.385 395.755 663.385 395.017C663.385 394.279 662.809 393.703 662.089 393.703C661.351 393.703 660.775 394.279 660.775 395.017C660.775 395.755 661.351 396.331 662.089 396.331ZM665.107 402.559C665.107 405.619 667.177 407.725 669.787 407.725C671.407 407.725 672.595 406.969 673.225 406.069V407.563H675.295V394.243H673.225V399.031C672.469 398.095 671.101 397.483 669.805 397.483C667.177 397.483 665.107 399.499 665.107 402.559ZM673.225 402.595C673.225 404.737 671.767 405.943 670.219 405.943C668.689 405.943 667.213 404.701 667.213 402.559C667.213 400.417 668.689 399.265 670.219 399.265C671.767 399.265 673.225 400.471 673.225 402.595ZM677.307 402.559C677.307 405.619 679.377 407.725 681.951 407.725C683.607 407.725 684.795 406.933 685.425 406.087V407.563H687.495V397.645H685.425V399.085C684.813 398.275 683.661 397.483 681.987 397.483C679.377 397.483 677.307 399.499 677.307 402.559ZM685.425 402.595C685.425 404.737 683.967 405.943 682.419 405.943C680.889 405.943 679.413 404.701 679.413 402.559C679.413 400.417 680.889 399.265 682.419 399.265C683.967 399.265 685.425 400.471 685.425 402.595ZM692.242 402.343C692.242 400.237 693.178 399.607 694.69 399.607H695.212V397.483C693.808 397.483 692.818 398.095 692.242 399.085V397.645H690.19V407.563H692.242V402.343Z" fill="#807B76"/>
<path d="M584.139 520.453L570.594 528.27L565.099 518.756C564.257 517.297 562.053 517.609 561.663 519.259L548.902 573.109L601.932 588.986C603.556 589.474 604.929 587.722 604.086 586.263L598.591 576.748L612.136 568.931C636.663 588.86 671.9 592.744 700.917 576.01C738.468 554.336 751.326 506.348 729.643 468.803C707.96 431.257 659.96 418.396 622.409 440.069C593.397 456.788 579.142 489.237 584.139 520.453Z" stroke="#807B76" stroke-width="3" stroke-miterlimit="10"/>
<g filter="url(#filter1_d_328:184)">
<path d="M679.089 442.976C643.161 433.349 606.233 454.663 596.608 490.582C586.984 526.501 608.307 563.423 644.235 573.05C680.164 582.677 717.091 561.363 726.716 525.444C736.34 489.525 715.017 452.603 679.089 442.976Z" fill="white"/>
</g>
<g clip-path="url(#clip1_328:184)">
<path d="M688.511 485.296L683.704 480.488C681.718 478.505 678.485 478.503 676.496 480.489L675.346 481.638L681.354 487.646C682.018 488.31 682.018 489.385 681.354 490.049C680.69 490.713 679.615 490.713 678.951 490.049L672.944 484.041L670.54 486.445L674.146 490.049C674.81 490.711 674.81 491.788 674.146 492.452C673.482 493.115 672.407 493.115 671.743 492.452L668.138 488.847L663.331 493.654L675.346 505.669L688.513 492.505C690.496 490.517 690.496 487.284 688.511 485.296Z" fill="#D72156"/>
<path d="M638.297 535.508C640.287 537.498 643.519 537.497 645.507 535.508L658.526 522.49L646.511 510.474L641.704 515.281L645.309 518.886C645.973 519.549 645.973 520.625 645.309 521.288C644.645 521.952 643.57 521.952 642.906 521.288L639.301 517.683L636.898 520.087L642.906 526.094C643.57 526.758 643.57 527.833 642.906 528.497C642.242 529.161 641.167 529.161 640.503 528.497L634.495 522.49L633.491 523.493C631.503 525.481 631.503 528.715 633.491 530.703L638.297 535.508Z" fill="#D72156"/>
<path d="M632.114 481.306L638.523 496.835L649.693 485.664L634.308 479.112C633.685 478.871 632.974 479.023 632.499 479.497C632.024 479.972 631.873 480.68 632.114 481.306Z" fill="#D72156"/>
<path d="M678.857 523.457L683.662 518.652L652.518 487.646L647.712 492.452L678.857 523.457Z" fill="#D72156"/>
<path d="M676.453 525.86L645.309 494.854L640.503 499.66L671.646 530.668L676.453 525.86Z" fill="#D72156"/>
<path d="M688.505 523.496L686.064 521.055L674.049 533.07L676.491 535.513C678.467 537.486 681.704 537.505 683.7 535.513C683.7 535.511 683.7 535.511 683.7 535.511L688.505 530.706C690.495 528.716 690.501 525.491 688.505 523.496Z" fill="#D72156"/>
</g>
<path d="M149.716 442.131L149.714 426.492L160.701 426.494C162.386 426.494 163.216 424.429 161.982 423.266L121.717 385.279L81.4743 423.244C80.2404 424.407 81.0713 426.472 82.7562 426.472L93.7437 426.473L93.7457 442.112C64.2256 453.381 43.2508 481.95 43.2432 515.447C43.2487 558.804 78.3871 593.942 121.744 593.947C165.101 593.953 200.23 558.823 200.225 515.467C200.232 481.994 179.25 453.419 149.716 442.131Z" stroke="#807B76" stroke-width="3" stroke-miterlimit="10"/>
<g filter="url(#filter2_d_328:184)">
<path d="M169.357 467.847C143.056 441.546 100.419 441.54 74.1242 467.835C47.8296 494.13 47.835 536.767 74.1362 563.068C100.437 589.369 143.075 589.375 169.369 563.08C195.664 536.786 195.658 494.148 169.357 467.847Z" fill="white"/>
</g>
<g clip-path="url(#clip2_328:184)">
<path d="M145.127 482.662H98.791C91.7162 482.662 85.959 488.419 85.959 495.496V520.679C85.959 527.755 91.7162 533.511 98.791 533.511H110.325L120.284 546.511C121.128 547.614 122.79 547.613 123.634 546.511L133.593 533.511H145.127C152.202 533.511 157.959 527.755 157.959 520.679V495.496C157.959 488.419 152.202 482.662 145.127 482.662ZM136.734 511.217L100.728 488.231C99.9056 489.055 121.292 525.325 120.468 524.501L148.728 490.538C144.756 486.566 141.986 493.125 145.959 489.154C149.922 485.191 117.594 492.881 121.557 496.844L121.959 497.246L145.127 520.679C147.046 518.758 144.63 511.217 147.344 511.217C150.059 511.217 134.815 494.925 136.734 496.844C140.697 500.807 140.697 507.255 136.734 511.217Z" fill="#D72156"/>
<path d="M123.286 509.457L111.493 521.248L99.7006 509.457C95.9923 505.748 98.5854 499.308 103.904 499.308C105.493 499.308 106.985 499.925 108.109 501.049L110.003 502.943C110.825 503.767 112.163 503.767 112.985 502.943L114.878 501.05C116.002 499.926 117.494 499.308 119.083 499.308C124.339 499.308 127.034 505.709 123.286 509.457Z" fill="white"/>
<path d="M135.925 519.615H139.498V497.461H133.036V500.622H135.925V519.615Z" fill="white"/>
</g>
<path d="M115.563 315.282C115.563 317.614 115.06 319.409 114.053 320.668C113.046 321.926 111.619 322.564 109.79 322.564C107.944 322.564 106.517 321.926 105.51 320.668C104.503 319.409 104 317.614 104 315.282C104 312.95 104.503 311.154 105.51 309.896C106.517 308.638 107.944 308 109.79 308C111.636 308 113.063 308.638 114.053 309.896C115.06 311.154 115.563 312.95 115.563 315.282ZM111.955 315.248C111.955 313.487 111.787 312.262 111.468 311.54C111.133 310.819 110.579 310.466 109.807 310.466C109.035 310.466 108.481 310.819 108.145 311.54C107.81 312.262 107.642 313.487 107.642 315.248C107.642 317.027 107.81 318.268 108.145 319.007C108.481 319.728 109.035 320.097 109.807 320.097C110.579 320.097 111.133 319.728 111.468 319.007C111.787 318.285 111.955 317.027 111.955 315.248Z" fill="#736F6C"/>
<path d="M118.752 319.795H121.957V310.718L118.668 311.389V308.923L121.924 308.252H125.364V319.795H128.57V322.295H118.752V319.795Z" fill="#736F6C"/>
<path d="M82.7506 353.814V349.728H85.0186C86.6206 349.728 87.3406 350.484 87.3406 351.78C87.3406 353.04 86.6206 353.814 85.0186 353.814H82.7506ZM89.4466 351.78C89.4466 349.746 87.9886 348.054 85.0186 348.054H80.6986V360.564H82.7506V355.488H85.0186C88.2766 355.488 89.4466 353.562 89.4466 351.78ZM91.4037 360.564H93.4557V347.244H91.4037V360.564ZM95.4658 355.56C95.4658 358.62 97.5358 360.726 100.11 360.726C101.766 360.726 102.954 359.934 103.584 359.088V360.564H105.654V350.646H103.584V352.086C102.972 351.276 101.82 350.484 100.146 350.484C97.5358 350.484 95.4658 352.5 95.4658 355.56ZM103.584 355.596C103.584 357.738 102.126 358.944 100.578 358.944C99.0478 358.944 97.5718 357.702 97.5718 355.56C97.5718 353.418 99.0478 352.266 100.578 352.266C102.126 352.266 103.584 353.472 103.584 355.596ZM115.387 360.564H117.421V354.714C117.421 351.942 115.675 350.484 113.353 350.484C112.165 350.484 111.067 350.97 110.401 351.78V350.646H108.349V360.564H110.401V355.02C110.401 353.202 111.391 352.266 112.903 352.266C114.397 352.266 115.387 353.202 115.387 355.02V360.564ZM124.214 352.212C125.744 352.212 126.95 353.184 126.986 354.714H121.496C121.712 353.148 122.828 352.212 124.214 352.212ZM128.858 357.612H126.644C126.266 358.386 125.564 358.998 124.304 358.998C122.792 358.998 121.622 358.008 121.478 356.37H129.056C129.11 356.028 129.128 355.704 129.128 355.362C129.128 352.446 127.13 350.484 124.304 350.484C121.37 350.484 119.354 352.482 119.354 355.596C119.354 358.71 121.46 360.726 124.304 360.726C126.734 360.726 128.3 359.34 128.858 357.612ZM132.192 349.332C132.912 349.332 133.488 348.756 133.488 348.018C133.488 347.28 132.912 346.704 132.192 346.704C131.454 346.704 130.878 347.28 130.878 348.018C130.878 348.756 131.454 349.332 132.192 349.332ZM131.148 350.646V362.508C131.148 363.246 130.86 363.552 129.996 363.552H129.294V365.28H130.356C132.12 365.28 133.2 364.524 133.2 362.508V350.646H131.148ZM135.21 355.56C135.21 358.62 137.28 360.726 139.854 360.726C141.51 360.726 142.698 359.934 143.328 359.088V360.564H145.398V350.646H143.328V352.086C142.716 351.276 141.564 350.484 139.89 350.484C137.28 350.484 135.21 352.5 135.21 355.56ZM143.328 355.596C143.328 357.738 141.87 358.944 140.322 358.944C138.792 358.944 137.316 357.702 137.316 355.56C137.316 353.418 138.792 352.266 140.322 352.266C141.87 352.266 143.328 353.472 143.328 355.596ZM150.145 355.344C150.145 353.238 151.081 352.608 152.593 352.608H153.115V350.484C151.711 350.484 150.721 351.096 150.145 352.086V350.646H148.093V360.564H150.145V355.344Z" fill="#807B76"/>
<path d="M387.057 215.299C387.057 217.631 386.554 219.426 385.547 220.684C384.54 221.943 383.113 222.58 381.284 222.58C379.438 222.58 378.012 221.943 377.005 220.684C375.998 219.426 375.494 217.631 375.494 215.299C375.494 212.966 375.998 211.171 377.005 209.913C378.012 208.654 379.438 208.017 381.284 208.017C383.13 208.017 384.557 208.654 385.547 209.913C386.554 211.171 387.057 212.966 387.057 215.299ZM383.432 215.265C383.432 213.503 383.264 212.279 382.946 211.557C382.61 210.836 382.056 210.483 381.284 210.483C380.512 210.483 379.958 210.836 379.623 211.557C379.287 212.279 379.119 213.503 379.119 215.265C379.119 217.044 379.287 218.285 379.623 219.023C379.958 219.745 380.512 220.114 381.284 220.114C382.056 220.114 382.61 219.745 382.946 219.023C383.264 218.302 383.432 217.044 383.432 215.265Z" fill="#736F6C"/>
<path d="M393.518 219.644H399.694V222.312H389.49V219.644L394.609 215.114C395.062 214.695 395.398 214.292 395.633 213.906C395.851 213.503 395.968 213.101 395.968 212.681C395.968 212.027 395.75 211.49 395.297 211.087C394.844 210.685 394.273 210.483 393.535 210.483C392.964 210.483 392.36 210.601 391.689 210.852C391.017 211.087 390.296 211.456 389.541 211.926V208.839C390.363 208.57 391.169 208.369 391.957 208.218C392.746 208.084 393.535 208 394.307 208C395.985 208 397.294 208.369 398.217 209.107C399.14 209.846 399.61 210.886 399.61 212.195C399.61 212.966 399.409 213.671 399.023 214.325C398.62 214.98 397.798 215.869 396.522 216.976L393.518 219.644Z" fill="#736F6C"/>
<path d="M364.351 251.814C364.351 253.056 363.631 253.938 362.029 253.938H359.761V249.744H362.029C363.631 249.744 364.351 250.554 364.351 251.814ZM357.709 248.07V260.58H359.761V255.576H361.327L364.207 260.58H366.655L363.559 255.396C365.665 254.874 366.457 253.29 366.457 251.814C366.457 249.78 364.999 248.07 362.029 248.07H357.709ZM373.258 252.228C374.788 252.228 375.994 253.2 376.03 254.73H370.54C370.756 253.164 371.872 252.228 373.258 252.228ZM377.902 257.628H375.688C375.31 258.402 374.608 259.014 373.348 259.014C371.836 259.014 370.666 258.024 370.522 256.386H378.1C378.154 256.044 378.172 255.72 378.172 255.378C378.172 252.462 376.174 250.5 373.348 250.5C370.414 250.5 368.398 252.498 368.398 255.612C368.398 258.726 370.504 260.742 373.348 260.742C375.778 260.742 377.344 259.356 377.902 257.628ZM379.508 255.576C379.508 258.636 381.578 260.742 384.188 260.742C385.808 260.742 386.996 259.986 387.626 259.086V260.58H389.696V247.26H387.626V252.048C386.87 251.112 385.502 250.5 384.206 250.5C381.578 250.5 379.508 252.516 379.508 255.576ZM387.626 255.612C387.626 257.754 386.168 258.96 384.62 258.96C383.09 258.96 381.614 257.718 381.614 255.576C381.614 253.434 383.09 252.282 384.62 252.282C386.168 252.282 387.626 253.488 387.626 255.612ZM392.391 260.58H394.443V250.662H392.391V260.58ZM393.435 249.348C394.155 249.348 394.731 248.772 394.731 248.034C394.731 247.296 394.155 246.72 393.435 246.72C392.697 246.72 392.121 247.296 392.121 248.034C392.121 248.772 392.697 249.348 393.435 249.348ZM396.453 255.576C396.453 258.636 398.523 260.742 401.133 260.742C402.753 260.742 403.941 259.932 404.571 259.086V260.742C404.571 262.722 403.383 263.694 401.799 263.694C400.377 263.694 399.279 262.992 398.973 261.966H396.939C397.191 264.162 399.153 265.476 401.799 265.476C404.895 265.476 406.641 263.442 406.641 260.742V250.662H404.571V252.102C403.959 251.256 402.753 250.5 401.133 250.5C398.523 250.5 396.453 252.516 396.453 255.576ZM404.571 255.612C404.571 257.754 403.113 258.96 401.565 258.96C400.035 258.96 398.559 257.718 398.559 255.576C398.559 253.434 400.035 252.282 401.565 252.282C403.113 252.282 404.571 253.488 404.571 255.612ZM409.336 260.58H411.388V250.662H409.336V260.58ZM410.38 249.348C411.1 249.348 411.676 248.772 411.676 248.034C411.676 247.296 411.1 246.72 410.38 246.72C409.642 246.72 409.066 247.296 409.066 248.034C409.066 248.772 409.642 249.348 410.38 249.348ZM416.134 255.36C416.134 253.254 417.07 252.624 418.582 252.624H419.104V250.5C417.7 250.5 416.71 251.112 416.134 252.102V250.662H414.082V260.58H416.134V255.36Z" fill="#807B76"/>
<path d="M200.326 196.013L213.871 188.195L219.365 197.71C220.208 199.169 222.412 198.856 222.802 197.206L235.563 143.356L182.533 127.479C180.909 126.992 179.536 128.743 180.379 130.202L185.873 139.717L172.329 147.535C147.802 127.605 112.564 123.721 83.5475 140.456C45.9967 162.129 33.1384 210.117 54.8215 247.663C76.5047 285.208 124.505 298.069 162.056 276.396C191.068 259.678 205.323 227.228 200.326 196.013Z" stroke="#807B76" stroke-width="3" stroke-miterlimit="10"/>
<g filter="url(#filter3_d_328:184)">
<path d="M105.376 273.49C141.304 283.116 178.232 261.802 187.856 225.883C197.481 189.964 176.158 153.042 140.229 143.415C104.301 133.788 67.3736 155.102 57.7491 191.021C48.1246 226.94 69.448 263.863 105.376 273.49Z" fill="white"/>
</g>
<g clip-path="url(#clip3_328:184)">
<path d="M141.043 213.571C134.033 213.571 128.328 219.275 128.328 226.285C128.328 233.296 134.033 239 141.043 239C148.053 239 154 233.296 154 226.285C154 219.275 148.053 213.571 141.043 213.571ZM144.676 228.102H141.043C140.039 228.102 139.227 227.289 139.227 226.285V222.653C139.227 221.649 140.039 220.836 141.043 220.836C142.047 220.836 142.859 221.649 142.859 222.653V224.469H144.676C145.68 224.469 146.492 225.281 146.492 226.285C146.492 227.289 145.68 228.102 144.676 228.102Z" fill="#D72156"/>
<path d="M99.2656 222.653H95.6328C93.6264 222.653 92 224.279 92 226.285C92 228.292 93.6264 229.918 95.6328 229.918H99.2656C101.272 229.918 102.898 228.292 102.898 226.285C102.898 224.279 101.272 222.653 99.2656 222.653Z" fill="#D72156"/>
<path d="M99.2656 204.489H95.6328C93.6264 204.489 92 206.115 92 208.121C92 210.127 93.6264 211.754 95.6328 211.754H99.2656C101.272 211.754 102.898 210.127 102.898 208.121C102.898 206.115 101.272 204.489 99.2656 204.489Z" fill="#D72156"/>
<path d="M99.2656 186.082H95.6328C93.6264 186.082 92 187.709 92 189.715C92 191.721 93.6264 193.348 95.6328 193.348H99.2656C101.272 193.348 102.898 191.721 102.898 189.715C102.898 187.709 101.272 186.082 99.2656 186.082Z" fill="#D72156"/>
<path d="M144.676 177H104.715C101.71 177 99.2656 179.445 99.2656 182.449C103.273 182.449 106.531 185.708 106.531 189.715C106.531 193.722 103.273 196.981 99.2656 196.981V200.856C103.273 200.856 106.531 204.114 106.531 208.121C106.531 212.128 103.273 215.387 99.2656 215.387V219.02C103.273 219.02 106.531 222.278 106.531 226.285C106.531 230.293 103.273 233.551 99.2656 233.551C99.2656 236.556 101.71 239 104.715 239H130.895C127.147 236.002 124.695 231.447 124.695 226.285C124.695 217.271 132.028 209.938 141.043 209.938C144.402 209.938 147.767 210.961 150.367 212.705V182.449C150.367 179.445 147.681 177 144.676 177ZM124.163 216.671L116.897 223.937C116.543 224.292 116.078 224.469 115.613 224.469C115.149 224.469 114.684 224.292 114.329 223.937L110.185 219.793C109.476 219.084 109.476 217.934 110.185 217.225C110.895 216.515 112.044 216.515 112.754 217.225L115.613 220.084L121.595 214.103C122.304 213.393 123.454 213.393 124.163 214.103C124.873 214.812 124.873 215.962 124.163 216.671ZM124.163 202.14L116.898 209.406C116.543 209.76 116.078 209.938 115.613 209.938C115.149 209.938 114.684 209.76 114.329 209.406L110.185 205.262C109.476 204.552 109.476 203.403 110.185 202.693C110.895 201.984 112.044 201.984 112.754 202.693L115.613 205.553L121.595 199.571C122.304 198.862 123.454 198.862 124.163 199.571C124.873 200.281 124.873 201.43 124.163 202.14ZM124.163 187.366L116.898 194.632C116.543 194.987 116.078 195.164 115.613 195.164C115.149 195.164 114.684 194.987 114.329 194.632L110.185 190.488C109.476 189.779 109.476 188.629 110.185 187.92C110.895 187.211 112.044 187.211 112.754 187.92L115.613 190.779L121.595 184.798C122.304 184.088 123.454 184.088 124.163 184.798C124.873 185.507 124.873 186.657 124.163 187.366ZM141.043 206.305H130.145C129.141 206.305 128.328 205.493 128.328 204.489C128.328 203.485 129.141 202.672 130.145 202.672H141.043C142.047 202.672 142.859 203.485 142.859 204.489C142.859 205.493 142.047 206.305 141.043 206.305ZM141.043 191.531H130.145C129.141 191.531 128.328 190.719 128.328 189.715C128.328 188.711 129.141 187.899 130.145 187.899H141.043C142.047 187.899 142.859 188.711 142.859 189.715C142.859 190.719 142.047 191.531 141.043 191.531Z" fill="#D72156"/>
</g>
<path d="M634.749 274.334L634.751 289.973L623.764 289.972C622.079 289.971 621.248 292.036 622.483 293.199L662.747 331.186L702.991 293.221C704.224 292.058 703.394 289.993 701.709 289.993L690.721 289.992L690.719 274.353C720.239 263.084 741.214 234.515 741.222 201.018C741.216 157.662 706.078 122.523 662.721 122.518C619.364 122.512 584.235 157.642 584.24 200.998C584.232 234.471 605.214 263.046 634.749 274.334Z" stroke="#807B76" stroke-width="3" stroke-miterlimit="10"/>
<g filter="url(#filter4_d_328:184)">
<path d="M615.108 248.618C641.409 274.919 684.046 274.925 710.341 248.63C736.635 222.336 736.63 179.698 710.329 153.397C684.027 127.096 641.39 127.09 615.096 153.385C588.801 179.68 588.806 222.317 615.108 248.618Z" fill="white"/>
</g>
<path d="M673.062 223.82H652.938V229.75H673.062V223.82Z" fill="#D72156"/>
<path d="M663 174.406C660.37 174.406 657.799 175.186 655.613 176.647C653.426 178.108 651.722 180.185 650.715 182.615C649.709 185.044 649.446 187.718 649.959 190.297C650.472 192.877 651.738 195.246 653.598 197.105C655.457 198.965 657.827 200.231 660.406 200.744C662.985 201.258 665.659 200.994 668.088 199.988C670.518 198.981 672.595 197.277 674.056 195.09C675.517 192.904 676.297 190.333 676.297 187.703C676.293 184.178 674.891 180.798 672.398 178.305C669.905 175.812 666.525 174.41 663 174.406ZM670.142 184.463L661.925 192.486C661.724 192.682 661.453 192.792 661.172 192.792C660.89 192.792 660.62 192.682 660.419 192.486L655.858 188.033C655.756 187.934 655.674 187.816 655.617 187.686C655.561 187.555 655.53 187.415 655.528 187.273C655.526 187.131 655.552 186.99 655.605 186.858C655.657 186.726 655.735 186.605 655.835 186.503C655.934 186.402 656.053 186.321 656.183 186.265C656.314 186.209 656.455 186.18 656.597 186.179C656.739 186.177 656.88 186.204 657.012 186.258C657.143 186.311 657.263 186.39 657.364 186.49L661.172 190.208L668.636 182.921C668.737 182.821 668.857 182.742 668.988 182.688C669.12 182.635 669.261 182.608 669.403 182.609C669.545 182.61 669.686 182.64 669.817 182.695C669.947 182.751 670.066 182.832 670.165 182.934C670.265 183.036 670.343 183.156 670.395 183.288C670.448 183.42 670.474 183.561 670.472 183.703C670.47 183.846 670.439 183.986 670.383 184.116C670.326 184.247 670.244 184.365 670.142 184.463Z" fill="#D72156"/>
<path d="M652.938 234.371C652.945 235.436 653.374 236.454 654.129 237.204C654.885 237.954 655.906 238.375 656.971 238.375H669.032C670.096 238.375 671.117 237.954 671.872 237.204C672.627 236.454 673.055 235.435 673.062 234.371V231.906H652.938V234.371Z" fill="#D72156"/>
<path d="M686.936 187.594C686.936 184.323 686.266 181.086 684.967 178.083C683.669 175.08 681.77 172.375 679.387 170.133C677.004 167.892 674.188 166.162 671.111 165.049C668.034 163.937 664.762 163.466 661.497 163.666C649.373 164.463 639.524 174.543 639.084 186.614C638.946 190.048 639.548 193.47 640.848 196.651C642.147 199.832 644.115 202.697 646.617 205.052C648.633 206.984 650.159 209.368 651.07 212.007C651.981 214.646 652.249 217.464 651.854 220.227L651.663 221.665H674.317L674.158 218.656C673.858 213.435 675.769 208.48 679.401 205.044C679.739 204.727 680.069 204.403 680.385 204.069C684.598 199.62 686.943 193.723 686.936 187.595V187.594ZM663 203.156C659.944 203.156 656.956 202.25 654.415 200.552C651.873 198.854 649.893 196.441 648.723 193.617C647.554 190.793 647.248 187.686 647.844 184.688C648.44 181.691 649.912 178.937 652.073 176.776C654.234 174.615 656.988 173.143 659.985 172.547C662.983 171.951 666.09 172.257 668.914 173.426C671.737 174.596 674.151 176.577 675.849 179.118C677.547 181.659 678.453 184.647 678.453 187.703C678.449 191.8 676.819 195.728 673.922 198.625C671.025 201.522 667.097 203.152 663 203.156Z" fill="#D72156"/>
<path d="M442.069 162.069L456.168 168.837L451.41 178.741C450.681 180.26 452.183 181.902 453.765 181.293L505.438 161.439L488.628 108.712C488.114 107.097 485.893 106.952 485.164 108.471L480.407 118.375L466.308 111.607C468.928 80.1183 452.253 48.8437 422.06 34.3374C382.974 15.5748 336.088 32.0405 317.315 71.1225C298.543 110.205 315.004 157.079 354.091 175.841C384.283 190.348 419.125 183.802 442.069 162.069Z" stroke="#807B76" stroke-width="3" stroke-miterlimit="10"/>
<g filter="url(#filter5_d_328:184)">
<path d="M410.387 168.644C445.481 156.319 463.942 117.886 451.621 82.8001C439.299 47.7147 400.861 29.2634 365.767 41.5881C330.672 53.9127 312.211 92.3462 324.533 127.432C336.854 162.517 375.292 180.968 410.387 168.644Z" fill="white"/>
</g>
<g clip-path="url(#clip4_328:184)">
<path d="M388.615 102.297C388.225 102.688 387.883 103.125 387.598 103.599L384.395 108.921L382.019 111.296C381.336 111.98 381.356 113.099 382.079 113.756C382.755 114.372 383.809 114.312 384.456 113.666L386.798 111.324L392.12 108.12C392.594 107.836 393.031 107.494 393.421 107.104L395.236 105.288L390.43 100.482L388.615 102.297Z" fill="#D72156"/>
<path d="M415.662 84.863C416.989 83.5359 416.989 81.384 415.662 80.0569C414.335 78.7294 412.183 78.7294 410.856 80.0569L408.453 82.4597L413.259 87.2658L415.662 84.863Z" fill="#D72156"/>
<path d="M392.832 98.0798L406.049 84.863L410.855 89.6691L397.638 102.886L392.832 98.0798Z" fill="#D72156"/>
<path d="M368.966 85.8581V76.6584L359.653 85.8581H368.966Z" fill="#D72156"/>
<path d="M365.538 133.663C369.292 133.679 372.364 130.514 372.364 126.759V121.768C372.364 120.83 373.124 120.069 374.063 120.069C380.774 120.069 404.549 120.069 403.063 120.069V102.266C402.254 103.076 395.482 109.847 395.824 109.506C395.824 109.506 394.35 110.744 393.875 111.03L388.906 114.021L386.824 116.102C385.047 117.88 382.16 118.168 380.032 116.444H367.314C366.398 116.444 365.611 115.74 365.569 114.825C365.524 113.849 366.301 113.046 367.267 113.046H378.177C378.157 112.863 378.123 112.684 378.123 112.498C378.123 111.467 378.431 110.483 378.997 109.647H367.314C366.398 109.647 365.611 108.943 365.569 108.029C365.524 107.052 366.301 106.249 367.267 106.249H382.036L384.082 102.85H367.314C366.398 102.85 365.611 102.146 365.569 101.232C365.524 100.255 366.301 99.4519 367.267 99.4519H386.655L390.054 96.0535H367.314C366.398 96.0535 365.611 95.3494 365.569 94.4348C365.524 93.4586 366.301 92.655 367.267 92.655H393.452L396.851 89.2566H377.509C376.594 89.2566 375.806 88.5526 375.764 87.6379C375.72 86.6617 376.496 85.8582 377.462 85.8582H400.249C400.589 85.5183 403.403 82.704 403.063 83.0438V77.3621C403.063 76.4235 402.303 75.6628 401.364 75.6628H372.364V87.5574C372.364 88.4959 371.604 89.2566 370.665 89.2566H358.657V126.866C358.657 130.61 361.797 133.647 365.538 133.663Z" fill="#D72156"/>
<path d="M375.763 123.468V126.866C375.763 129.486 374.742 131.855 373.111 133.663H404.763C407.578 133.663 409.86 131.38 409.86 128.565V125.167C409.86 124.228 409.1 123.468 408.161 123.468H375.763Z" fill="#D72156"/>
</g>
<defs>
<filter id="filter0_d_328:184" x="329.023" y="543.998" width="142.729" height="142.703" filterUnits="userSpaceOnUse" color-interpolation-filters="sRGB">
<feFlood flood-opacity="0" result="BackgroundImageFix"/>
<feColorMatrix in="SourceAlpha" type="matrix" values="0 0 0 0 0 0 0 0 0 0 0 0 0 0 0 0 0 0 127 0" result="hardAlpha"/>
<feOffset dx="4" dy="4"/>
<feGaussianBlur stdDeviation="2"/>
<feColorMatrix type="matrix" values="0 0 0 0 0 0 0 0 0 0 0 0 0 0 0 0 0 0 0.25 0"/>
<feBlend mode="normal" in2="BackgroundImageFix" result="effect1_dropShadow_328:184"/>
<feBlend mode="normal" in="SourceGraphic" in2="effect1_dropShadow_328:184" result="shape"/>
</filter>
<filter id="filter1_d_328:184" x="594.298" y="440.664" width="142.729" height="142.699" filterUnits="userSpaceOnUse" color-interpolation-filters="sRGB">
<feFlood flood-opacity="0" result="BackgroundImageFix"/>
<feColorMatrix in="SourceAlpha" type="matrix" values="0 0 0 0 0 0 0 0 0 0 0 0 0 0 0 0 0 0 127 0" result="hardAlpha"/>
<feOffset dx="4" dy="4"/>
<feGaussianBlur stdDeviation="2"/>
<feColorMatrix type="matrix" values="0 0 0 0 0 0 0 0 0 0 0 0 0 0 0 0 0 0 0.25 0"/>
<feBlend mode="normal" in2="BackgroundImageFix" result="effect1_dropShadow_328:184"/>
<feBlend mode="normal" in="SourceGraphic" in2="effect1_dropShadow_328:184" result="shape"/>
</filter>
<filter id="filter2_d_328:184" x="54.4072" y="448.118" width="142.68" height="142.68" filterUnits="userSpaceOnUse" color-interpolation-filters="sRGB">
<feFlood flood-opacity="0" result="BackgroundImageFix"/>
<feColorMatrix in="SourceAlpha" type="matrix" values="0 0 0 0 0 0 0 0 0 0 0 0 0 0 0 0 0 0 127 0" result="hardAlpha"/>
<feOffset dx="4" dy="4"/>
<feGaussianBlur stdDeviation="2"/>
<feColorMatrix type="matrix" values="0 0 0 0 0 0 0 0 0 0 0 0 0 0 0 0 0 0 0.25 0"/>
<feBlend mode="normal" in2="BackgroundImageFix" result="effect1_dropShadow_328:184"/>
<feBlend mode="normal" in="SourceGraphic" in2="effect1_dropShadow_328:184" result="shape"/>
</filter>
<filter id="filter3_d_328:184" x="55.4385" y="141.103" width="142.729" height="142.699" filterUnits="userSpaceOnUse" color-interpolation-filters="sRGB">
<feFlood flood-opacity="0" result="BackgroundImageFix"/>
<feColorMatrix in="SourceAlpha" type="matrix" values="0 0 0 0 0 0 0 0 0 0 0 0 0 0 0 0 0 0 127 0" result="hardAlpha"/>
<feOffset dx="4" dy="4"/>
<feGaussianBlur stdDeviation="2"/>
<feColorMatrix type="matrix" values="0 0 0 0 0 0 0 0 0 0 0 0 0 0 0 0 0 0 0.25 0"/>
<feBlend mode="normal" in2="BackgroundImageFix" result="effect1_dropShadow_328:184"/>
<feBlend mode="normal" in="SourceGraphic" in2="effect1_dropShadow_328:184" result="shape"/>
</filter>
<filter id="filter4_d_328:184" x="595.378" y="133.667" width="142.68" height="142.68" filterUnits="userSpaceOnUse" color-interpolation-filters="sRGB">
<feFlood flood-opacity="0" result="BackgroundImageFix"/>
<feColorMatrix in="SourceAlpha" type="matrix" values="0 0 0 0 0 0 0 0 0 0 0 0 0 0 0 0 0 0 127 0" result="hardAlpha"/>
<feOffset dx="4" dy="4"/>
<feGaussianBlur stdDeviation="2"/>
<feColorMatrix type="matrix" values="0 0 0 0 0 0 0 0 0 0 0 0 0 0 0 0 0 0 0.25 0"/>
<feBlend mode="normal" in2="BackgroundImageFix" result="effect1_dropShadow_328:184"/>
<feBlend mode="normal" in="SourceGraphic" in2="effect1_dropShadow_328:184" result="shape"/>
</filter>
<filter id="filter5_d_328:184" x="320.712" y="37.7642" width="142.729" height="142.703" filterUnits="userSpaceOnUse" color-interpolation-filters="sRGB">
<feFlood flood-opacity="0" result="BackgroundImageFix"/>
<feColorMatrix in="SourceAlpha" type="matrix" values="0 0 0 0 0 0 0 0 0 0 0 0 0 0 0 0 0 0 127 0" result="hardAlpha"/>
<feOffset dx="4" dy="4"/>
<feGaussianBlur stdDeviation="2"/>
<feColorMatrix type="matrix" values="0 0 0 0 0 0 0 0 0 0 0 0 0 0 0 0 0 0 0.25 0"/>
<feBlend mode="normal" in2="BackgroundImageFix" result="effect1_dropShadow_328:184"/>
<feBlend mode="normal" in="SourceGraphic" in2="effect1_dropShadow_328:184" result="shape"/>
</filter>
<clipPath id="clip0_328:184">
<rect width="64" height="64" fill="white" transform="translate(366 579)"/>
</clipPath>
<clipPath id="clip1_328:184">
<rect width="58" height="58" fill="white" transform="translate(632 479)"/>
</clipPath>
<clipPath id="clip2_328:184">
<rect width="72" height="72" fill="white" transform="translate(85.959 479)"/>
</clipPath>
<clipPath id="clip3_328:184">
<rect width="62" height="62" fill="white" transform="translate(92 177)"/>
</clipPath>
<clipPath id="clip4_328:184">
<rect width="58" height="58" fill="white" transform="translate(358.657 75.6628)"/>
</clipPath>
</defs>
</svg>
