<svg width="14" height="14" viewBox="0 0 14 14" fill="none" xmlns="http://www.w3.org/2000/svg">
<path d="M14 7.00008C14 3.13408 10.866 7.72476e-05 7 7.72476e-05C3.134 7.72476e-05 0 3.13408 0 7.00008C0 10.494 2.5598 13.3899 5.90625 13.915V9.02351H4.12891V7.00008H5.90625V5.45789C5.90625 3.70352 6.9513 2.73445 8.55025 2.73445C9.31611 2.73445 10.1172 2.87117 10.1172 2.87117V4.59383H9.2345C8.36493 4.59383 8.09375 5.13342 8.09375 5.68699V7.00008H10.0352L9.7248 9.02351H8.09375V13.915C11.4402 13.3899 14 10.494 14 7.00008Z" fill="#D72156"/>
<path d="M9.7248 9.02344L10.0352 7H8.09375V5.68691C8.09375 5.13334 8.36493 4.59375 9.2345 4.59375H10.1172V2.87109C10.1172 2.87109 9.31611 2.73438 8.55025 2.73438C6.9513 2.73438 5.90625 3.70344 5.90625 5.45781V7H4.12891V9.02344H5.90625V13.915C6.26263 13.9709 6.62791 14 7 14C7.37209 14 7.73736 13.9709 8.09375 13.915V9.02344H9.7248Z" fill="white"/>
</svg>
