<svg width="292" height="232" viewBox="0 0 292 232" fill="none" xmlns="http://www.w3.org/2000/svg">
<path d="M115.954 69.0717C117.669 65.4287 119.844 61.9116 122.574 58.5945C144.03 32.5264 186.191 34.7223 210.913 55.7357C238.331 79.0401 235.796 118.262 235.236 124.963C233.286 148.276 221.099 186.225 193.066 193.956C180.044 197.547 167.617 193.509 156.776 186.018C148.214 180.101 136.925 180.653 128.753 187.589C125.662 190.212 122.216 192.43 118.388 194C109.725 197.554 102.013 196.602 98.6725 196.148C72.6325 192.606 47.1958 163.162 47.4353 135.631C47.7115 104.039 81.7546 79.8075 115.954 69.0717Z" fill="#FDF2F5"/>
<path d="M212.353 110.755V172.866C212.353 172.941 212.349 173.016 212.346 173.096C212.346 173.132 212.342 173.168 212.339 173.204C212.339 173.236 212.335 173.272 212.332 173.308C212.332 173.323 212.328 173.337 212.328 173.351C212.325 173.377 212.321 173.398 212.317 173.419C212.314 173.473 212.303 173.527 212.296 173.581C212.288 173.632 212.277 173.686 212.266 173.736C212.263 173.761 212.255 173.787 212.248 173.812C212.248 173.829 212.245 173.851 212.237 173.869C212.234 173.894 212.226 173.919 212.219 173.944C212.208 173.991 212.194 174.038 212.183 174.081C212.183 174.088 212.179 174.099 212.175 174.106C212.15 174.186 212.128 174.264 212.099 174.34C212.099 174.343 212.099 174.347 212.096 174.351C212.081 174.39 212.067 174.43 212.053 174.466C212.038 174.502 212.023 174.535 212.013 174.567C212.009 174.578 212.002 174.589 212.002 174.596C211.959 174.694 211.915 174.794 211.864 174.888C211.849 174.917 211.831 174.953 211.813 174.985C211.795 175.018 211.777 175.046 211.759 175.079C211.741 175.108 211.726 175.14 211.705 175.169C211.668 175.23 211.629 175.291 211.588 175.349C211.563 175.388 211.537 175.42 211.516 175.456C211.455 175.535 211.396 175.615 211.331 175.69C211.284 175.748 211.237 175.801 211.19 175.852C211.143 175.906 211.092 175.956 211.042 176.007C211.02 176.032 210.994 176.054 210.969 176.079C210.948 176.1 210.926 176.122 210.9 176.14C210.875 176.165 210.846 176.19 210.817 176.215C210.81 176.222 210.799 176.23 210.791 176.236C210.722 176.297 210.65 176.355 210.577 176.409C210.57 176.413 210.563 176.42 210.556 176.427C210.498 176.467 210.44 176.51 210.378 176.55C210.357 176.564 210.339 176.579 210.32 176.589C210.288 176.611 210.255 176.632 210.223 176.651C210.197 176.669 210.172 176.683 210.143 176.698C210.114 176.716 210.085 176.734 210.056 176.748C209.853 176.863 209.639 176.96 209.418 177.039C209.404 177.043 209.393 177.05 209.378 177.054C209.364 177.057 209.346 177.065 209.331 177.068C209.28 177.086 209.23 177.104 209.175 177.119C209.085 177.148 208.994 177.169 208.904 177.191C208.856 177.202 208.81 177.212 208.762 177.223C208.733 177.23 208.701 177.234 208.672 177.238C208.636 177.245 208.596 177.252 208.56 177.259C208.553 177.259 208.549 177.259 208.545 177.262C208.516 177.266 208.487 177.269 208.455 177.274C208.44 177.274 208.425 177.277 208.411 177.277C208.386 177.28 208.357 177.284 208.332 177.287C208.317 177.287 208.303 177.291 208.285 177.291C208.23 177.294 208.172 177.298 208.118 177.302C208.038 177.305 207.958 177.309 207.879 177.309H97.3895C97.31 177.309 97.23 177.305 97.1506 177.302C97.0963 177.298 97.0385 177.295 96.9842 177.291C96.9228 177.287 96.8609 177.28 96.7996 177.269C96.7634 177.266 96.7272 177.263 96.6945 177.255C96.6075 177.244 96.5205 177.226 96.4375 177.208C96.4124 177.204 96.3902 177.197 96.3651 177.19C96.2746 177.169 96.1841 177.147 96.0936 177.118C96.0392 177.1 95.9884 177.086 95.9376 177.068C95.6947 176.985 95.4593 176.88 95.2345 176.762C95.1802 176.729 95.1259 176.697 95.0716 176.665C95.0102 176.629 94.9483 176.589 94.8905 176.549C94.5319 176.308 94.2131 176.02 93.9374 175.689C93.872 175.614 93.8107 175.534 93.7529 175.452C93.5537 175.178 93.3867 174.883 93.2565 174.567C93.2273 174.495 93.1987 174.415 93.1695 174.34C93.1403 174.264 93.1187 174.185 93.0936 174.106C93.0719 174.027 93.0503 173.948 93.0322 173.869C93.0141 173.794 92.9995 173.722 92.9849 173.646C92.9814 173.635 92.9814 173.621 92.9779 173.61C92.9668 173.538 92.9563 173.462 92.9487 173.39C92.9452 173.387 92.9452 173.379 92.9452 173.372C92.9382 173.315 92.9341 173.261 92.9306 173.204C92.9195 173.092 92.916 172.98 92.916 172.866V110.755C92.916 110.222 93.01 109.711 93.1841 109.236C93.4597 108.484 93.9339 107.826 94.5465 107.326C94.5541 107.319 94.5646 107.311 94.5757 107.304L94.8076 107.128C95.5358 106.613 96.427 106.311 97.3906 106.311H207.88C207.989 106.311 208.094 106.315 208.199 106.326C208.217 106.322 208.238 106.326 208.257 106.329C208.358 106.336 208.463 106.347 208.561 106.362C208.582 106.365 208.608 106.369 208.63 106.373C208.717 106.387 208.804 106.405 208.887 106.427C208.908 106.43 208.93 106.434 208.952 106.441C209.057 106.466 209.159 106.495 209.26 106.528C209.354 106.557 209.452 106.592 209.543 106.628C209.673 106.679 209.799 106.74 209.923 106.805C209.992 106.837 210.061 106.873 210.125 106.913C210.242 106.978 210.354 107.05 210.459 107.128C210.462 107.125 210.462 107.128 210.462 107.128L210.694 107.305C210.705 107.312 210.716 107.319 210.723 107.326C210.785 107.373 210.84 107.424 210.894 107.474C210.937 107.509 210.977 107.549 211.017 107.589C211.14 107.708 211.256 107.834 211.365 107.971C211.416 108.031 211.463 108.093 211.507 108.154C211.695 108.409 211.855 108.686 211.981 108.982C212.018 109.061 212.05 109.143 212.083 109.226C212.083 109.23 212.086 109.233 212.086 109.237C212.137 109.37 212.177 109.507 212.213 109.644C212.231 109.712 212.246 109.777 212.26 109.845C212.272 109.899 212.282 109.95 212.29 110.003C212.3 110.057 212.308 110.111 212.315 110.165C212.326 110.23 212.333 110.295 212.336 110.36C212.343 110.414 212.347 110.471 212.347 110.525C212.349 110.6 212.353 110.679 212.353 110.755Z" fill="#DFE5EA"/>
<path d="M212.086 109.237H93.1836C93.4592 108.484 93.9335 107.826 94.5461 107.326C94.5537 107.319 94.5642 107.312 94.5753 107.305L94.8071 107.128L149.894 65.5981C151.513 64.3749 153.756 64.3749 155.375 65.5981L210.458 107.128C210.462 107.124 210.462 107.128 210.462 107.128L210.694 107.304C210.705 107.312 210.715 107.319 210.723 107.326C210.784 107.373 210.839 107.423 210.894 107.473C210.937 107.509 210.977 107.548 211.017 107.588C211.14 107.707 211.256 107.833 211.365 107.97C211.416 108.031 211.462 108.092 211.506 108.153C211.695 108.408 211.854 108.686 211.981 108.981C212.017 109.06 212.05 109.143 212.083 109.226C212.082 109.229 212.086 109.233 212.086 109.237Z" fill="#D72156"/>
<path d="M203.777 174.076H100.016V80.5724C100.016 76.1795 103.601 72.6177 108.025 72.6177H195.768C200.191 72.6177 203.777 76.1789 203.777 80.5724V174.076Z" fill="white"/>
<path d="M190.018 95.0684H113.774C112.706 95.0684 111.832 94.2007 111.832 93.1399V92.3198C111.832 91.259 112.706 90.3913 113.774 90.3913H190.018C191.086 90.3913 191.96 91.259 191.96 92.3198V93.1399C191.96 94.2007 191.086 95.0684 190.018 95.0684Z" fill="#E3E3E3"/>
<path d="M190.018 105.061H113.774C112.706 105.061 111.832 104.194 111.832 103.133V102.313C111.832 101.252 112.706 100.383 113.774 100.383H190.018C191.086 100.383 191.96 101.252 191.96 102.313V103.133C191.96 104.194 191.086 105.061 190.018 105.061Z" fill="#E3E3E3"/>
<path d="M190.018 115.054H113.774C112.706 115.054 111.832 114.186 111.832 113.126V112.305C111.832 111.245 112.706 110.377 113.774 110.377H190.018C191.086 110.377 191.96 111.245 191.96 112.305V113.126C191.96 114.186 191.086 115.054 190.018 115.054Z" fill="#E3E3E3"/>
<path d="M190.018 125.047H113.774C112.706 125.047 111.832 124.179 111.832 123.118V122.298C111.832 121.237 112.706 120.37 113.774 120.37H190.018C191.086 120.37 191.96 121.237 191.96 122.298V123.118C191.96 124.179 191.086 125.047 190.018 125.047Z" fill="#E3E3E3"/>
<path d="M190.018 135.04H113.774C112.706 135.04 111.832 134.173 111.832 133.112V132.292C111.832 131.231 112.706 130.363 113.774 130.363H190.018C191.086 130.363 191.96 131.231 191.96 132.292V133.112C191.96 134.172 191.086 135.04 190.018 135.04Z" fill="#E3E3E3"/>
<path d="M152.636 143.476V143.48C152.462 143.667 152.255 143.839 152.019 143.984L97.6351 177.309H97.3887C96.9361 177.309 96.501 177.245 96.0916 177.119C96.0338 177.101 95.9754 177.083 95.9211 177.065C95.2074 176.82 94.5732 176.399 94.0768 175.852C94.0295 175.801 93.9828 175.748 93.9355 175.69C93.7977 175.528 93.6744 175.352 93.5623 175.168C93.5226 175.107 93.4899 175.046 93.4537 174.985C93.421 174.92 93.3848 174.855 93.3562 174.791C93.0735 174.208 92.9141 173.556 92.9141 172.866V110.755C92.9141 110.222 93.0081 109.711 93.1821 109.236C93.4578 108.484 93.932 107.826 94.5446 107.326C94.5522 107.319 94.5627 107.311 94.5738 107.304L94.8056 107.128C95.5339 106.613 96.4251 106.311 97.3887 106.311H98.4101L103.185 109.237L147.204 136.212L148.86 137.226L152.019 139.162C152.255 139.306 152.462 139.479 152.636 139.666V139.669C153.617 140.738 153.617 142.412 152.636 143.476Z" fill="#D72156"/>
<path d="M212.352 110.755V172.866C212.352 172.941 212.349 173.016 212.345 173.096C212.345 173.132 212.342 173.168 212.338 173.204C212.338 173.236 212.335 173.272 212.331 173.308C212.331 173.323 212.328 173.337 212.328 173.351C212.324 173.377 212.32 173.398 212.317 173.419C212.313 173.473 212.302 173.527 212.295 173.581C212.288 173.632 212.277 173.686 212.266 173.736C212.266 173.743 212.262 173.754 212.262 173.761C212.259 173.776 212.255 173.794 212.248 173.812C212.248 173.829 212.244 173.851 212.237 173.869C212.233 173.894 212.226 173.919 212.219 173.944C212.208 173.991 212.197 174.034 212.182 174.081C212.182 174.088 212.179 174.099 212.175 174.106C212.153 174.186 212.128 174.264 212.099 174.34C212.099 174.343 212.099 174.347 212.095 174.351C212.081 174.39 212.07 174.426 212.052 174.466C212.041 174.499 212.027 174.531 212.012 174.567C212.009 174.574 212.005 174.585 212.001 174.596C211.958 174.694 211.914 174.794 211.864 174.888C211.849 174.917 211.831 174.953 211.813 174.985C211.795 175.018 211.777 175.046 211.758 175.079C211.74 175.108 211.726 175.14 211.704 175.169C211.668 175.23 211.628 175.291 211.588 175.349C211.563 175.388 211.537 175.42 211.516 175.456C211.454 175.539 211.392 175.615 211.331 175.69C211.284 175.748 211.237 175.801 211.19 175.852C211.142 175.906 211.092 175.956 211.041 176.007C211.02 176.032 210.994 176.054 210.969 176.079C210.947 176.1 210.926 176.122 210.9 176.14C210.874 176.165 210.846 176.19 210.816 176.215C210.809 176.222 210.798 176.23 210.791 176.236C210.722 176.297 210.649 176.355 210.577 176.409C210.569 176.413 210.562 176.42 210.555 176.427C210.498 176.467 210.439 176.51 210.378 176.55C210.356 176.564 210.338 176.579 210.32 176.589C210.287 176.611 210.255 176.632 210.223 176.651C210.197 176.669 210.172 176.683 210.143 176.698C210.113 176.716 210.085 176.734 210.056 176.748C209.853 176.863 209.639 176.96 209.418 177.039C209.403 177.043 209.389 177.05 209.378 177.054C209.363 177.057 209.345 177.065 209.331 177.068C209.28 177.086 209.229 177.104 209.175 177.119C209.084 177.148 208.994 177.169 208.903 177.191C208.856 177.202 208.809 177.212 208.762 177.223C208.733 177.23 208.701 177.234 208.671 177.238C208.635 177.245 208.596 177.252 208.559 177.259H208.548C208.515 177.262 208.483 177.27 208.454 177.274C208.44 177.274 208.425 177.277 208.411 177.277C208.386 177.28 208.36 177.284 208.332 177.287C208.317 177.287 208.302 177.291 208.284 177.291C208.23 177.294 208.172 177.298 208.117 177.302C208.038 177.305 207.958 177.309 207.878 177.309H207.632L153.247 143.983C153.012 143.839 152.805 143.667 152.635 143.479V143.476C151.65 142.407 151.65 140.741 152.635 139.669V139.665C152.806 139.478 153.012 139.306 153.247 139.162L156.403 137.226L158.058 136.211L202.081 109.236L206.856 106.311H207.877C207.986 106.311 208.091 106.314 208.196 106.325C208.214 106.322 208.236 106.325 208.254 106.329C208.355 106.336 208.461 106.347 208.558 106.361C208.58 106.365 208.605 106.368 208.627 106.372C208.714 106.387 208.801 106.405 208.884 106.426C208.906 106.43 208.927 106.433 208.949 106.441C209.055 106.465 209.156 106.494 209.257 106.527C209.351 106.556 209.449 106.592 209.54 106.628C209.67 106.678 209.797 106.739 209.92 106.804C209.989 106.837 210.058 106.873 210.123 106.912C210.239 106.977 210.351 107.049 210.456 107.128C210.46 107.124 210.46 107.128 210.46 107.128L210.691 107.304C210.703 107.312 210.713 107.319 210.721 107.326C210.782 107.373 210.837 107.423 210.891 107.473C210.934 107.509 210.975 107.548 211.014 107.588C211.138 107.707 211.253 107.833 211.362 107.97C211.413 108.031 211.46 108.092 211.504 108.153C211.692 108.408 211.852 108.686 211.979 108.981C212.015 109.06 212.048 109.143 212.08 109.226C212.08 109.229 212.084 109.233 212.084 109.237C212.135 109.37 212.174 109.506 212.21 109.643C212.229 109.712 212.243 109.777 212.258 109.845C212.269 109.898 212.279 109.949 212.287 110.003C212.297 110.057 212.305 110.111 212.312 110.165C212.323 110.23 212.33 110.294 212.334 110.359C212.341 110.413 212.345 110.47 212.345 110.524C212.349 110.6 212.352 110.679 212.352 110.755Z" fill="#D72156"/>
<path opacity="0.29" d="M212.352 172.025V172.671C212.352 175.233 210.348 177.31 207.877 177.31H97.3887C94.9178 177.31 92.9141 175.233 92.9141 172.671V172.025L149.744 134.891C151.508 133.738 153.755 133.738 155.519 134.891L212.352 172.025Z" fill="#474747"/>
<path d="M212.352 172.247V172.866C212.352 175.32 210.348 177.309 207.877 177.309H97.3887C94.9178 177.309 92.9141 175.319 92.9141 172.866V172.247L149.744 136.673C151.508 135.568 153.755 135.568 155.519 136.673L212.352 172.247Z" fill="#FC76B1"/>
<path d="M147.026 85.0757H113.774C112.706 85.0757 111.832 84.208 111.832 83.1471V82.327C111.832 81.2661 112.706 80.3984 113.774 80.3984H147.026C148.094 80.3984 148.967 81.2661 148.967 82.327V83.1471C148.967 84.2074 148.094 85.0757 147.026 85.0757Z" fill="#B6B6B6"/>
<path d="M108.327 168.76C108.317 168.76 108.307 168.76 108.297 168.76C106.972 168.707 105.639 168.594 104.334 168.422C103.932 168.369 103.65 168.003 103.703 167.604C103.756 167.205 104.125 166.923 104.527 166.978C105.787 167.144 107.075 167.254 108.355 167.304C108.76 167.32 109.075 167.659 109.059 168.061C109.043 168.453 108.718 168.76 108.327 168.76ZM112.235 168.742C111.846 168.742 111.522 168.438 111.503 168.049C111.483 167.647 111.795 167.305 112.2 167.286C113.464 167.225 114.754 167.108 116.032 166.938C116.434 166.884 116.802 167.165 116.856 167.564C116.91 167.963 116.628 168.329 116.226 168.382C114.907 168.557 113.576 168.678 112.271 168.741C112.259 168.741 112.247 168.742 112.235 168.742ZM100.583 167.737C100.529 167.737 100.473 167.73 100.418 167.718C99.1322 167.425 97.8433 167.066 96.5866 166.652C96.2023 166.526 95.9938 166.113 96.1211 165.732C96.2484 165.35 96.6642 165.143 97.0479 165.27C98.2609 165.669 99.5054 166.016 100.746 166.299C101.141 166.389 101.388 166.78 101.297 167.172C101.219 167.509 100.917 167.737 100.583 167.737ZM119.981 167.722C119.643 167.722 119.339 167.488 119.264 167.147C119.179 166.753 119.431 166.367 119.827 166.282C121.071 166.016 122.329 165.698 123.565 165.337C123.953 165.223 124.362 165.443 124.475 165.83C124.59 166.215 124.368 166.62 123.979 166.734C122.708 167.106 121.415 167.433 120.135 167.706C120.084 167.717 120.032 167.722 119.981 167.722ZM127.484 165.535C127.186 165.535 126.907 165.355 126.796 165.062C126.655 164.685 126.848 164.265 127.227 164.125C128.426 163.681 129.626 163.189 130.798 162.662C131.166 162.496 131.601 162.659 131.768 163.025C131.935 163.391 131.772 163.823 131.403 163.989C130.202 164.529 128.969 165.034 127.74 165.489C127.655 165.52 127.569 165.535 127.484 165.535ZM93.1614 165.305C93.065 165.305 92.9669 165.285 92.8729 165.246C91.6856 164.741 90.4797 164.174 89.2871 163.562C88.9274 163.377 88.7866 162.938 88.9724 162.58C89.1587 162.224 89.6013 162.083 89.9605 162.268C91.1215 162.864 92.2959 163.416 93.4505 163.907C93.8225 164.065 93.9948 164.494 93.8353 164.863C93.7168 165.139 93.4458 165.305 93.1614 165.305ZM134.607 162.328C134.346 162.328 134.093 162.19 133.961 161.946C133.768 161.593 133.901 161.151 134.257 160.959C135.288 160.405 136.269 159.834 137.173 159.26C137.513 159.044 137.967 159.142 138.185 159.481C138.403 159.82 138.303 160.271 137.962 160.487C137.029 161.08 136.016 161.67 134.954 162.241C134.844 162.3 134.725 162.328 134.607 162.328ZM86.2112 161.742C86.0816 161.742 85.9502 161.708 85.8316 161.637C84.6957 160.952 83.5803 160.227 82.5157 159.481C82.1845 159.249 82.1057 158.795 82.3393 158.466C82.5729 158.138 83.0302 158.06 83.3613 158.291C84.3985 159.017 85.4853 159.724 86.5926 160.391C86.9389 160.6 87.0492 161.047 86.839 161.391C86.7006 161.618 86.4588 161.742 86.2112 161.742ZM79.8234 157.257C79.6593 157.257 79.494 157.202 79.3574 157.09C78.3634 156.277 77.4109 155.432 76.5238 154.579C76.4514 154.529 76.3889 154.466 76.3398 154.395C76.1086 154.112 76.1232 153.695 76.3854 153.428C76.6283 153.18 77.0056 153.142 77.2906 153.314C78.4785 153.578 79.6838 153.778 80.8775 153.91C81.2799 153.954 81.5702 154.314 81.5258 154.714C81.4814 155.114 81.1222 155.403 80.7164 155.358C80.2632 155.308 79.8082 155.249 79.3533 155.18C79.6611 155.445 79.9735 155.708 80.2906 155.967C80.6031 156.223 80.6474 156.682 80.3899 156.993C80.2445 157.166 80.0348 157.257 79.8234 157.257ZM84.6998 155.559C84.298 155.559 83.9704 155.237 83.9669 154.837C83.9634 154.435 84.2887 154.106 84.6934 154.102C85.7148 154.093 86.7462 154.035 87.76 153.927C87.9679 153.905 88.2126 153.879 88.5163 153.843C88.9157 153.79 89.283 154.08 89.3315 154.48C89.3794 154.879 89.0927 155.242 88.6903 155.289C88.3796 155.326 88.1285 155.353 87.9457 155.373C86.8548 155.488 85.775 155.549 84.7068 155.559C84.7045 155.559 84.7021 155.559 84.6998 155.559ZM92.4693 154.659C92.13 154.659 91.8252 154.424 91.7528 154.081C91.6693 153.688 91.9227 153.302 92.3193 153.219C93.5965 152.952 94.8503 152.63 96.0458 152.264C96.4341 152.147 96.8435 152.361 96.9626 152.745C97.0824 153.13 96.8651 153.537 96.4779 153.656C95.2398 154.035 93.9422 154.368 92.6212 154.644C92.5704 154.655 92.5196 154.659 92.4693 154.659ZM73.1909 153.629C73.1103 153.629 73.0286 153.616 72.948 153.588C71.7046 153.154 70.4648 152.643 69.2629 152.071C68.8979 151.897 68.7438 151.462 68.919 151.099C69.0942 150.737 69.5322 150.585 69.8972 150.758C71.0506 151.308 72.2402 151.798 73.4339 152.214C73.8158 152.347 74.0167 152.763 73.8824 153.143C73.7773 153.442 73.4934 153.629 73.1909 153.629ZM99.9381 152.354C99.6537 152.354 99.3833 152.189 99.2642 151.913C99.1042 151.544 99.2765 151.116 99.6485 150.957C100.857 150.441 102.002 149.865 103.053 149.245C103.4 149.04 103.85 149.153 104.058 149.499C104.264 149.845 104.15 150.292 103.802 150.497C102.696 151.15 101.494 151.755 100.228 152.295C100.133 152.335 100.034 152.354 99.9381 152.354ZM74.2491 151.823C74.0401 151.823 73.8322 151.734 73.6873 151.563C72.8061 150.522 72.0019 149.452 71.297 148.383C71.0751 148.047 71.1697 147.595 71.5084 147.375C71.8471 147.155 72.3015 147.249 72.5234 147.585C73.1968 148.605 73.9659 149.629 74.8098 150.627C75.0702 150.935 75.0299 151.395 74.7198 151.653C74.5826 151.767 74.4156 151.823 74.2491 151.823ZM66.1508 150.278C66.0188 150.278 65.8857 150.243 65.7654 150.169C64.64 149.478 63.5386 148.718 62.4915 147.91C62.1714 147.663 62.113 147.206 62.3618 146.889C62.61 146.571 63.0708 146.513 63.3908 146.76C64.3976 147.535 65.4564 148.266 66.538 148.93C66.8826 149.142 66.9888 149.591 66.7757 149.932C66.6367 150.156 66.3967 150.278 66.1508 150.278ZM106.619 148.362C106.41 148.362 106.202 148.273 106.057 148.102C105.797 147.794 105.837 147.335 106.147 147.076C107.134 146.253 108.021 145.358 108.784 144.414C109.038 144.101 109.5 144.051 109.815 144.303C110.13 144.555 110.181 145.013 109.927 145.327C109.104 146.344 108.149 147.308 107.09 148.191C106.953 148.306 106.786 148.362 106.619 148.362ZM59.9844 145.524C59.8016 145.524 59.6182 145.457 59.4757 145.321C58.5179 144.406 57.6022 143.431 56.7554 142.425C56.4955 142.116 56.537 141.657 56.8477 141.399C57.1584 141.141 57.6209 141.182 57.8802 141.491C58.6937 142.457 59.5726 143.392 60.4924 144.272C60.7844 144.55 60.7932 145.011 60.5123 145.301C60.3686 145.45 60.1765 145.524 59.9844 145.524ZM70.0029 145.326C69.7266 145.326 69.4621 145.171 69.3377 144.905C68.756 143.664 68.2894 142.399 67.9507 141.147C67.8456 140.758 68.0774 140.358 68.4687 140.254C68.86 140.148 69.2618 140.381 69.3669 140.769C69.684 141.941 70.1214 143.125 70.6669 144.29C70.838 144.655 70.6786 145.088 70.3112 145.258C70.2114 145.304 70.1062 145.326 70.0029 145.326ZM111.456 142.338C111.347 142.338 111.236 142.313 111.132 142.262C110.768 142.084 110.619 141.648 110.799 141.287C111.314 140.252 111.728 139.146 112.028 138.001L112.081 137.795C112.179 137.405 112.578 137.167 112.971 137.266C113.364 137.363 113.603 137.759 113.504 138.149L113.448 138.368C113.123 139.61 112.674 140.808 112.115 141.932C111.985 142.189 111.726 142.338 111.456 142.338ZM54.9806 139.576C54.743 139.576 54.5099 139.461 54.3686 139.249C53.6345 138.15 52.9577 136.998 52.3567 135.825C52.1728 135.467 52.3164 135.028 52.6773 134.845C53.0377 134.662 53.4798 134.805 53.6631 135.164C54.239 136.287 54.8878 137.391 55.5909 138.445C55.8146 138.78 55.7223 139.232 55.3848 139.454C55.2604 139.536 55.1196 139.576 54.9806 139.576ZM68.0179 137.867C67.6347 137.867 67.3118 137.571 67.2867 137.186C67.2598 136.771 67.2458 136.35 67.2458 135.933C67.2458 135.011 67.313 134.079 67.4455 133.162C67.5034 132.764 67.8724 132.488 68.2754 132.545C68.676 132.602 68.9546 132.971 68.8974 133.369C68.7747 134.217 68.7122 135.08 68.7122 135.932C68.7122 136.318 68.7251 136.708 68.7502 137.091C68.7765 137.493 68.4699 137.838 68.0657 137.864C68.05 137.866 68.0336 137.867 68.0179 137.867ZM113.346 134.861C113.335 134.861 113.324 134.86 113.313 134.86C112.909 134.843 112.595 134.503 112.613 134.101C112.625 133.82 112.631 133.539 112.631 133.257C112.631 132.303 112.561 131.329 112.422 130.363C112.364 129.964 112.643 129.596 113.044 129.539C113.445 129.482 113.816 129.759 113.874 130.157C114.022 131.191 114.097 132.234 114.097 133.257C114.097 133.559 114.091 133.861 114.078 134.164C114.06 134.555 113.736 134.861 113.346 134.861ZM51.4387 132.669C51.1414 132.669 50.8617 132.488 50.7519 132.195C50.2911 130.969 49.8928 129.696 49.567 128.411C49.4683 128.021 49.7065 127.625 50.099 127.527C50.492 127.43 50.8903 127.666 50.989 128.056C51.3014 129.289 51.6834 130.51 52.1255 131.686C52.2674 132.063 52.0747 132.482 51.6951 132.623C51.6104 132.655 51.5239 132.669 51.4387 132.669ZM69.0936 130.225C69.0153 130.225 68.9359 130.212 68.8576 130.186C68.4745 130.056 68.269 129.643 68.3992 129.262C68.8185 128.037 69.3517 126.803 69.9848 125.594C70.1722 125.237 70.6143 125.099 70.9741 125.284C71.3332 125.47 71.4734 125.909 71.2859 126.267C70.6873 127.41 70.1833 128.576 69.7874 129.731C69.684 130.034 69.399 130.225 69.0936 130.225ZM112.265 127.209C111.956 127.209 111.668 127.013 111.567 126.704C111.183 125.519 110.695 124.349 110.117 123.227C109.933 122.869 110.076 122.431 110.436 122.247C110.796 122.064 111.239 122.206 111.423 122.564C112.037 123.755 112.555 124.998 112.964 126.257C113.088 126.64 112.876 127.05 112.491 127.174C112.416 127.198 112.34 127.209 112.265 127.209ZM49.5267 125.152C49.1675 125.152 48.8533 124.889 48.8013 124.526C48.6174 123.236 48.4971 121.91 48.4439 120.586C48.4282 120.184 48.7429 119.845 49.1471 119.829C49.5623 119.815 49.8928 120.126 49.9092 120.528C49.9606 121.804 50.0762 123.08 50.2532 124.321C50.3098 124.72 50.0307 125.088 49.63 125.144C49.5956 125.15 49.5611 125.152 49.5267 125.152ZM72.6706 123.343C72.5246 123.343 72.3774 123.301 72.2489 123.211C71.9178 122.979 71.8384 122.525 72.0714 122.196C72.8341 121.12 73.678 120.078 74.5791 119.098C74.8524 118.801 75.3161 118.78 75.6151 119.051C75.9141 119.322 75.9351 119.783 75.6618 120.08C74.8022 121.015 73.9974 122.009 73.2703 123.034C73.1279 123.236 72.9013 123.343 72.6706 123.343ZM108.721 120.32C108.495 120.32 108.273 120.217 108.129 120.022C107.377 119.003 106.543 118.046 105.651 117.178C105.362 116.897 105.356 116.436 105.64 116.148C105.923 115.861 106.387 115.855 106.677 116.137C107.626 117.06 108.514 118.078 109.313 119.162C109.553 119.486 109.481 119.942 109.155 120.18C109.023 120.275 108.872 120.32 108.721 120.32ZM77.9359 117.621C77.728 117.621 77.5213 117.534 77.3764 117.364C77.1148 117.057 77.1528 116.597 77.4617 116.337C78.4936 115.468 79.5787 114.673 80.686 113.973C81.0276 113.757 81.4814 113.857 81.6981 114.196C81.9153 114.536 81.8149 114.986 81.4732 115.201C80.4214 115.866 79.3913 116.622 78.4095 117.448C78.2717 117.565 78.103 117.621 77.9359 117.621ZM49.2119 117.402C49.1979 117.402 49.1833 117.401 49.1693 117.401C48.7651 117.378 48.4562 117.034 48.479 116.632C48.5561 115.295 48.6991 113.972 48.9047 112.698C48.9684 112.301 49.3439 112.03 49.7445 112.093C50.1445 112.156 50.4167 112.53 50.353 112.927C50.1556 114.153 50.0184 115.428 49.9436 116.715C49.9209 117.103 49.5973 117.402 49.2119 117.402ZM103.141 114.927C102.999 114.927 102.856 114.886 102.73 114.801C101.673 114.09 100.562 113.489 99.4283 113.015C99.0551 112.859 98.8793 112.432 99.0364 112.062C99.1935 111.691 99.6245 111.517 99.9965 111.673C101.219 112.184 102.416 112.83 103.553 113.596C103.888 113.822 103.975 114.275 103.748 114.607C103.606 114.815 103.376 114.927 103.141 114.927ZM84.5223 113.483C84.2402 113.483 83.9716 113.321 83.8507 113.048C83.6877 112.68 83.8565 112.25 84.2268 112.088C85.4841 111.539 86.7683 111.105 88.0432 110.797C88.4368 110.701 88.8334 110.941 88.9291 111.332C89.0249 111.723 88.7831 112.117 88.3901 112.212C87.1988 112.5 85.9963 112.907 84.8172 113.421C84.7208 113.464 84.6204 113.483 84.5223 113.483ZM95.9745 111.964C95.9307 111.964 95.8863 111.96 95.8419 111.952C94.8404 111.77 93.8108 111.678 92.783 111.678C92.5756 111.674 92.3327 111.682 92.1078 111.691C91.702 111.713 91.3627 111.393 91.3469 110.991C91.3311 110.589 91.6465 110.251 92.0512 110.235C92.2947 110.226 92.5558 110.231 92.783 110.222C93.899 110.222 95.0162 110.321 96.1048 110.519C96.503 110.592 96.767 110.971 96.6946 111.366C96.6303 111.717 96.3214 111.964 95.9745 111.964ZM50.4716 109.749C50.4056 109.749 50.339 109.741 50.2724 109.722C49.8823 109.613 49.6557 109.211 49.7649 108.824C50.1229 107.56 50.5551 106.3 51.0497 105.077C51.2004 104.703 51.6279 104.523 52.004 104.673C52.3795 104.823 52.5617 105.247 52.411 105.62C51.9357 106.794 51.5204 108.005 51.177 109.218C51.0859 109.539 50.7916 109.749 50.4716 109.749ZM53.3776 102.559C53.2619 102.559 53.144 102.531 53.0348 102.473C52.6768 102.285 52.5407 101.844 52.7305 101.489C53.3478 100.334 54.0363 99.1917 54.7774 98.0937C55.0034 97.7602 55.4589 97.6703 55.7947 97.8948C56.1311 98.1187 56.2205 98.5711 55.995 98.9051C55.282 99.9613 54.6191 101.06 54.0258 102.171C53.8944 102.418 53.6404 102.559 53.3776 102.559ZM57.7237 96.1148C57.559 96.1148 57.3937 96.0603 57.2571 95.9477C56.9452 95.6914 56.9008 95.2326 57.159 94.9223C57.9976 93.9143 58.8999 92.9312 59.8407 92.0003C60.1274 91.7166 60.5923 91.7172 60.8779 92.002C61.164 92.2868 61.1629 92.7479 60.8761 93.0321C59.9686 93.9305 59.0984 94.8788 58.2896 95.8509C58.1447 96.0249 57.9351 96.1148 57.7237 96.1148ZM63.2553 90.6349C63.0439 90.6349 62.8343 90.5445 62.6894 90.3699C62.4313 90.0596 62.4757 89.6008 62.7881 89.345C63.8025 88.5133 64.8724 87.7146 65.968 86.9711C66.3021 86.7443 66.7588 86.8296 66.9871 87.1613C67.2154 87.4937 67.1296 87.9466 66.7955 88.1734C65.7362 88.8926 64.7019 89.6646 63.7214 90.4679C63.5853 90.5804 63.42 90.6349 63.2553 90.6349ZM69.7074 86.253C69.451 86.253 69.2016 86.1191 69.0673 85.8807C68.8693 85.5298 68.9949 85.0861 69.3482 84.8895C70.4952 84.2509 71.6895 83.6517 72.8978 83.11C73.2668 82.9436 73.7013 83.1071 73.8678 83.4737C74.0348 83.8402 73.8707 84.2718 73.5016 84.4371C72.3319 84.962 71.1761 85.5414 70.0654 86.1597C69.9521 86.2235 69.8288 86.253 69.7074 86.253ZM76.8304 83.0538C76.5285 83.0538 76.2452 82.867 76.139 82.5683C76.0041 82.189 76.2044 81.7731 76.5863 81.6391C77.8261 81.2041 79.1033 80.815 80.3823 80.482C80.773 80.38 81.1748 80.6131 81.2776 81.0023C81.3804 81.3915 81.1456 81.7894 80.7537 81.8914C79.5139 82.2139 78.2764 82.5915 77.0751 83.0126C76.9939 83.0404 76.9116 83.0538 76.8304 83.0538Z" fill="#F4B545"/>
<path opacity="0.1" d="M113.403 62.9452L58.0762 70.2769L71.4895 80.3811L71.6997 98.9782L83.2589 89.2278L89.7541 94.0917L113.403 62.9452Z" fill="#232323"/>
<path d="M72.9062 97.8506L72.5996 70.6852L114.61 61.8176L72.9062 97.8506Z" fill="#46C1AA"/>
<path d="M72.7876 79.322C73.0002 79.2158 114.61 61.8176 114.61 61.8176L59.2832 69.1494L72.7876 79.322Z" fill="#52D1BD"/>
<path d="M77.3733 82.7893L72.9062 97.8506L92.0649 81.689L77.3733 82.7893Z" fill="#3CAF99"/>
<path d="M77.373 82.7892L90.9604 92.9636L114.609 61.8176L77.373 82.7892Z" fill="#52D1BD"/>
<path d="M188.649 170.631C188.301 170.631 187.952 170.624 187.604 170.61C187.199 170.594 186.885 170.254 186.901 169.853C186.917 169.451 187.265 169.14 187.663 169.155C188.919 169.206 190.184 169.159 191.453 169.014C191.854 168.967 192.22 169.256 192.265 169.655C192.311 170.054 192.022 170.416 191.62 170.461C190.628 170.574 189.628 170.631 188.649 170.631ZM183.758 170.13C183.708 170.13 183.657 170.125 183.606 170.115C182.297 169.84 181 169.452 179.75 168.962C179.373 168.814 179.189 168.391 179.338 168.017C179.487 167.643 179.913 167.46 180.29 167.607C181.462 168.068 182.68 168.432 183.908 168.69C184.304 168.773 184.557 169.159 184.475 169.553C184.402 169.895 184.097 170.13 183.758 170.13ZM195.375 169.747C195.05 169.747 194.753 169.531 194.666 169.204C194.564 168.815 194.798 168.417 195.19 168.315C196.397 168.001 197.614 167.597 198.807 167.115C199.183 166.964 199.61 167.144 199.762 167.516C199.915 167.889 199.734 168.313 199.36 168.464C198.107 168.97 196.83 169.394 195.562 169.724C195.499 169.74 195.437 169.747 195.375 169.747ZM176.516 167.299C176.389 167.299 176.26 167.266 176.143 167.197C175.02 166.533 173.913 165.764 172.854 164.913C172.539 164.66 172.49 164.201 172.745 163.889C173 163.576 173.461 163.528 173.776 163.781C174.781 164.589 175.829 165.317 176.892 165.946C177.24 166.151 177.354 166.598 177.147 166.944C177.01 167.172 176.766 167.299 176.516 167.299ZM202.61 166.84C202.352 166.84 202.102 166.705 201.968 166.465C201.772 166.113 201.9 165.669 202.254 165.475C203.36 164.866 204.448 164.182 205.487 163.444C205.816 163.21 206.274 163.286 206.511 163.613C206.746 163.94 206.67 164.395 206.341 164.629C205.256 165.399 204.12 166.112 202.966 166.748C202.852 166.81 202.73 166.84 202.61 166.84ZM170.44 162.443C170.248 162.443 170.055 162.368 169.911 162.219C169.012 161.288 168.138 160.275 167.312 159.209C167.065 158.89 167.126 158.432 167.447 158.187C167.768 157.942 168.228 158.002 168.475 158.321C169.268 159.345 170.107 160.318 170.97 161.21C171.25 161.5 171.241 161.961 170.949 162.24C170.806 162.376 170.623 162.443 170.44 162.443ZM208.96 162.334C208.76 162.334 208.56 162.253 208.416 162.094C208.144 161.795 208.169 161.335 208.469 161.065C209.424 160.211 210.328 159.302 211.157 158.363C211.424 158.062 211.887 158.031 212.192 158.296C212.496 158.562 212.526 159.022 212.259 159.324C211.393 160.304 210.449 161.254 209.452 162.147C209.311 162.272 209.136 162.334 208.96 162.334ZM211.481 158.008C211.108 158.008 210.789 157.726 210.752 157.35C210.712 156.95 211.007 156.594 211.41 156.555C212.112 156.486 212.818 156.375 213.522 156.221C213.331 155.979 213.308 155.633 213.49 155.365C214.216 154.294 214.854 153.193 215.384 152.092C215.559 151.729 215.997 151.575 216.362 151.75C216.727 151.923 216.881 152.358 216.706 152.721C216.198 153.776 215.598 154.83 214.92 155.859C214.975 155.842 215.031 155.825 215.086 155.808C215.475 155.689 215.884 155.903 216.005 156.286C216.126 156.67 215.911 157.079 215.524 157.199C214.213 157.605 212.876 157.877 211.552 158.005C211.529 158.007 211.504 158.008 211.481 158.008ZM207.581 157.952C207.55 157.952 207.519 157.95 207.487 157.946C206.203 157.781 204.876 157.473 203.543 157.03C203.159 156.902 202.952 156.49 203.08 156.109C203.209 155.727 203.623 155.521 204.008 155.649C205.251 156.063 206.484 156.349 207.673 156.501C208.075 156.553 208.359 156.918 208.307 157.316C208.26 157.684 207.945 157.952 207.581 157.952ZM165.665 156.298C165.42 156.298 165.181 156.177 165.042 155.956C164.331 154.823 163.675 153.661 163.094 152.501C162.914 152.14 163.062 151.704 163.424 151.524C163.786 151.345 164.227 151.493 164.407 151.852C164.968 152.971 165.599 154.092 166.285 155.185C166.5 155.526 166.395 155.975 166.051 156.188C165.932 156.263 165.798 156.298 165.665 156.298ZM218.908 155.729C218.645 155.729 218.391 155.589 218.26 155.343C218.069 154.988 218.205 154.547 218.563 154.358C219.658 153.78 220.726 153.094 221.74 152.318C222.061 152.074 222.522 152.132 222.768 152.451C223.015 152.77 222.955 153.227 222.635 153.472C221.557 154.297 220.419 155.028 219.251 155.644C219.142 155.702 219.024 155.729 218.908 155.729ZM200.19 155.522C200.072 155.522 199.952 155.493 199.841 155.434C198.624 154.779 197.492 154.027 196.478 153.199C196.165 152.944 196.119 152.485 196.377 152.175C196.635 151.863 197.097 151.818 197.409 152.074C198.352 152.843 199.405 153.543 200.54 154.154C200.897 154.346 201.029 154.787 200.835 155.141C200.703 155.384 200.451 155.522 200.19 155.522ZM225.085 151.022C224.904 151.022 224.722 150.955 224.58 150.821C224.286 150.544 224.275 150.084 224.553 149.792C225.415 148.891 226.225 147.908 226.962 146.872C227.195 146.544 227.652 146.465 227.984 146.697C228.315 146.929 228.394 147.383 228.16 147.712C227.383 148.805 226.527 149.843 225.617 150.795C225.473 150.946 225.279 151.022 225.085 151.022ZM194.226 150.584C194.005 150.584 193.786 150.485 193.642 150.297C192.787 149.178 192.113 147.981 191.64 146.736C191.496 146.36 191.688 145.939 192.066 145.797C192.444 145.655 192.868 145.844 193.011 146.22C193.435 147.333 194.04 148.409 194.81 149.414C195.054 149.735 194.991 150.192 194.669 150.435C194.537 150.536 194.381 150.584 194.226 150.584ZM217.423 149.505C217.359 149.505 217.294 149.497 217.229 149.479C216.838 149.373 216.609 148.972 216.715 148.584C217.059 147.341 217.261 146.108 217.317 144.919C217.336 144.517 217.665 144.209 218.084 144.225C218.488 144.244 218.801 144.585 218.782 144.987C218.721 146.284 218.502 147.623 218.13 148.97C218.041 149.293 217.745 149.505 217.423 149.505ZM229.587 144.702C229.474 144.702 229.359 144.676 229.252 144.62C228.892 144.436 228.751 143.997 228.937 143.639C229.514 142.53 230.026 141.362 230.459 140.169C230.597 139.79 231.016 139.594 231.397 139.73C231.779 139.867 231.976 140.284 231.839 140.662C231.384 141.915 230.846 143.141 230.239 144.308C230.109 144.559 229.852 144.702 229.587 144.702ZM191.534 143.423C191.145 143.423 190.821 143.12 190.802 142.73C190.79 142.505 190.785 142.28 190.785 142.056C190.785 140.945 190.92 139.807 191.186 138.675C191.279 138.282 191.676 138.039 192.067 138.132C192.461 138.223 192.707 138.615 192.614 139.006C192.374 140.029 192.252 141.055 192.252 142.056C192.252 142.257 192.257 142.458 192.267 142.659C192.287 143.061 191.975 143.402 191.57 143.422C191.558 143.422 191.546 143.423 191.534 143.423ZM217.739 141.819C217.396 141.819 217.09 141.579 217.02 141.233C216.781 140.045 216.412 138.84 215.922 137.654C215.769 137.281 215.949 136.856 216.324 136.704C216.698 136.552 217.127 136.73 217.28 137.102C217.804 138.375 218.201 139.668 218.459 140.948C218.538 141.342 218.28 141.726 217.883 141.805C217.835 141.814 217.786 141.819 217.739 141.819ZM193.247 135.932C193.135 135.932 193.021 135.906 192.915 135.853C192.554 135.67 192.41 135.232 192.594 134.873C193.214 133.664 193.97 132.529 194.844 131.501C195.105 131.194 195.568 131.155 195.878 131.415C196.187 131.675 196.226 132.134 195.965 132.441C195.164 133.383 194.47 134.424 193.901 135.533C193.771 135.786 193.514 135.932 193.247 135.932ZM214.805 134.66C214.563 134.66 214.326 134.541 214.186 134.324C213.484 133.235 212.7 132.252 211.858 131.404C211.574 131.117 211.577 130.656 211.865 130.374C212.154 130.091 212.618 130.094 212.902 130.381C213.817 131.301 214.664 132.364 215.421 133.539C215.64 133.877 215.54 134.328 215.199 134.544C215.077 134.623 214.939 134.66 214.805 134.66ZM198.27 130.07C198.039 130.07 197.813 129.962 197.67 129.762C197.436 129.433 197.516 128.979 197.846 128.747C199.031 127.917 200.276 127.305 201.548 126.928C201.936 126.815 202.345 127.032 202.461 127.418C202.576 127.804 202.356 128.209 201.968 128.324C200.848 128.656 199.746 129.199 198.691 129.937C198.564 130.027 198.416 130.07 198.27 130.07ZM209.299 129.248C209.178 129.248 209.055 129.219 208.942 129.155C207.83 128.537 206.683 128.152 205.531 128.01C205.129 127.96 204.843 127.596 204.893 127.197C204.944 126.798 205.306 126.514 205.712 126.564C207.054 126.73 208.381 127.174 209.658 127.885C210.012 128.081 210.138 128.525 209.94 128.875C209.806 129.114 209.556 129.248 209.299 129.248Z" fill="#52D1BD"/>
<path opacity="0.1" d="M243.159 141.579C248.739 136.038 248.739 127.053 243.159 121.511C237.579 115.97 228.532 115.97 222.953 121.511C217.373 127.053 217.373 136.038 222.953 141.579C228.532 147.121 237.579 147.121 243.159 141.579Z" fill="#232323"/>
<path d="M236.095 144.039C243.986 144.039 250.383 137.686 250.383 129.849C250.383 122.012 243.986 115.659 236.095 115.659C228.204 115.659 221.807 122.012 221.807 129.849C221.807 137.686 228.204 144.039 236.095 144.039Z" fill="#F4B545"/>
<path d="M238.641 125.738L238.979 124.623L241.691 124.815L239.606 132.02C239.477 132.476 239.407 132.778 239.396 132.928C239.385 133.084 239.415 133.209 239.488 133.303C239.56 133.397 239.651 133.448 239.761 133.456C240.131 133.482 240.626 133.276 241.246 132.837C241.866 132.4 242.422 131.782 242.917 130.987C243.411 130.191 243.693 129.304 243.763 128.324C243.822 127.508 243.721 126.728 243.461 125.985C243.201 125.243 242.796 124.585 242.245 124.013C241.694 123.44 240.996 122.974 240.151 122.614C239.306 122.253 238.336 122.034 237.24 121.957C236.123 121.878 235.089 121.95 234.137 122.173C233.185 122.396 232.337 122.754 231.593 123.244C230.849 123.735 230.212 124.362 229.682 125.124C229.215 125.788 228.842 126.535 228.562 127.362C228.282 128.19 228.111 129.043 228.048 129.92C227.964 131.09 228.122 132.176 228.522 133.179C228.921 134.181 229.545 135.042 230.391 135.761C231.238 136.481 232.285 137.023 233.532 137.388C234.78 137.753 236.207 137.91 237.815 137.86C239.092 137.8 240.186 137.591 241.097 137.231C242.007 136.871 242.794 136.332 243.458 135.613L245.647 135.768C245.238 136.471 244.728 137.088 244.115 137.618C243.502 138.15 242.798 138.583 242.004 138.921C241.208 139.258 240.328 139.494 239.361 139.631C238.395 139.768 237.35 139.796 236.226 139.717C234.541 139.598 233.04 139.271 231.722 138.737C230.404 138.203 229.315 137.49 228.453 136.599C227.591 135.707 226.965 134.671 226.574 133.492C226.184 132.313 226.038 131.03 226.138 129.642C226.242 128.193 226.581 126.856 227.158 125.632C227.734 124.408 228.513 123.364 229.494 122.501C230.474 121.637 231.643 120.99 232.999 120.559C234.355 120.128 235.827 119.969 237.416 120.081C238.718 120.174 239.898 120.447 240.956 120.9C242.014 121.355 242.905 121.963 243.628 122.725C244.352 123.487 244.882 124.367 245.22 125.365C245.558 126.363 245.686 127.448 245.602 128.617C245.536 129.529 245.308 130.41 244.917 131.261C244.525 132.112 243.998 132.864 243.335 133.518C242.672 134.172 241.912 134.671 241.054 135.018C240.196 135.364 239.288 135.503 238.33 135.435C237.775 135.396 237.35 135.272 237.055 135.063C236.761 134.854 236.577 134.542 236.503 134.127C235.865 134.67 235.154 134.99 234.369 135.088C233.584 135.187 232.839 135.062 232.135 134.715C231.43 134.368 230.879 133.828 230.48 133.096C230.082 132.364 229.919 131.484 229.993 130.457C230.069 129.389 230.376 128.354 230.912 127.353C231.448 126.352 232.166 125.551 233.066 124.952C233.966 124.353 234.954 124.09 236.029 124.166C237.26 124.256 238.132 124.779 238.641 125.738ZM232.643 130.626C232.584 131.442 232.711 132.08 233.022 132.539C233.333 132.999 233.766 133.248 234.321 133.288C234.965 133.333 235.55 133.118 236.076 132.643C236.602 132.167 237.02 131.549 237.329 130.788C237.638 130.027 237.819 129.283 237.871 128.555C237.897 128.195 237.878 127.866 237.813 127.572C237.748 127.276 237.639 127.014 237.488 126.785C237.335 126.555 237.145 126.376 236.917 126.247C236.689 126.118 236.424 126.043 236.123 126.021C235.52 125.979 234.961 126.173 234.444 126.605C233.928 127.037 233.513 127.616 233.2 128.342C232.885 129.069 232.7 129.83 232.643 130.626Z" fill="white"/>
<path d="M194.1 51.1804L195.644 50.3742C195.994 50.1915 196.403 50.4867 196.336 50.8736L196.041 52.5811C196.015 52.7348 196.066 52.8914 196.178 53.0005L197.428 54.2098C197.711 54.4835 197.554 54.9614 197.163 55.0177L195.437 55.2671C195.281 55.2897 195.147 55.3866 195.078 55.5264L194.306 57.0802C194.13 57.4322 193.625 57.4322 193.45 57.0802L192.678 55.5264C192.608 55.3866 192.474 55.2897 192.319 55.2671L190.592 55.0177C190.201 54.9614 190.045 54.4841 190.328 54.2098L191.577 53.0005C191.689 52.8914 191.741 52.7348 191.714 52.5811L191.419 50.8736C191.353 50.4867 191.762 50.1915 192.111 50.3742L193.656 51.1804C193.795 51.2535 193.961 51.2535 194.1 51.1804Z" fill="#4786D1"/>
<path d="M68.4936 174.528C66.23 174.528 64.3887 172.7 64.3887 170.452C64.3887 168.204 66.23 166.374 68.4936 166.374C70.7572 166.374 72.5991 168.204 72.5991 170.452C72.5991 172.7 70.7572 174.528 68.4936 174.528ZM68.4936 167.495C66.8526 167.495 65.5181 168.821 65.5181 170.451C65.5181 172.081 66.8531 173.406 68.4936 173.406C70.1341 173.406 71.4697 172.08 71.4697 170.451C71.4697 168.822 70.1341 167.495 68.4936 167.495Z" fill="#D72156"/>
<path d="M69.9702 171.919C70.7866 171.108 70.7866 169.793 69.9702 168.982C69.1537 168.171 67.83 168.171 67.0135 168.982C66.197 169.793 66.197 171.108 67.0135 171.919C67.83 172.729 69.1537 172.729 69.9702 171.919Z" fill="#D72156"/>
<path d="M153.371 194.809C154.413 194.809 155.258 193.97 155.258 192.935C155.258 191.9 154.413 191.061 153.371 191.061C152.329 191.061 151.484 191.9 151.484 192.935C151.484 193.97 152.329 194.809 153.371 194.809Z" fill="#D72156"/>
<path d="M122.049 45.9523C123.091 45.9523 123.936 45.1133 123.936 44.0783C123.936 43.0433 123.091 42.2043 122.049 42.2043C121.007 42.2043 120.162 43.0433 120.162 44.0783C120.162 45.1133 121.007 45.9523 122.049 45.9523Z" fill="#4786D1"/>
</svg>
